<svg id="Layer_1" data-name="Layer 1" xmlns="http://www.w3.org/2000/svg" viewBox="0 0 48 48"><defs><style>.cls-1{fill:#b24896;}.cls-2{fill:#fffeff;}.cls-3{fill:#78297a;}.cls-4{fill:#fefefe;}.cls-5{fill:#972d88;}.cls-6{fill:#fcf9fc;}.cls-7{fill:#9b368b;}</style></defs><path class="cls-1" d="M23.34,0h1.32a10.74,10.74,0,0,1,1.45.59l17.25,9.93A3.65,3.65,0,0,1,44.82,12c-2.18,1.25-4.35,2.51-6.53,3.75-.66.38-1.35.7-2,1.05L36,16.5a14.14,14.14,0,0,0-22-2.61A13.76,13.76,0,0,0,9.92,25.64a14.22,14.22,0,0,0,1.79,5.48,5.45,5.45,0,0,0-.55.25C10,32,8.91,32.66,7.79,33.31L3.15,35.94a4,4,0,0,1-.51-2.2q0-9.72,0-19.45a4.21,4.21,0,0,1,2.28-3.95c3.92-2.22,7.81-4.52,11.74-6.73C18.87,2.37,20.93.86,23.34,0Z"/><path class="cls-2" d="M23.34,0c-2.41.86-4.47,2.37-6.68,3.61C12.73,5.82,8.84,8.12,4.92,10.34a4.21,4.21,0,0,0-2.28,3.95q0,9.72,0,19.45a4,4,0,0,0,.51,2.2,3.79,3.79,0,0,0,1.7,1.68c3.19,1.83,6.35,3.71,9.56,5.49,2.95,1.63,5.72,3.57,8.84,4.89H0V0Z"/><path class="cls-2" d="M44.82,12a3.65,3.65,0,0,0-1.46-1.48L26.11.59A10.74,10.74,0,0,0,24.66,0H48V48H24.66c1-.5,2.09-1,3.08-1.51q7.75-4.43,15.47-8.91A3.62,3.62,0,0,0,44.82,36a8.12,8.12,0,0,0,.53-1.94q0-10.07,0-20.12A7.65,7.65,0,0,0,44.82,12Z"/><path class="cls-3" d="M44.82,36a3.62,3.62,0,0,1-1.61,1.58q-7.73,4.47-15.47,8.91c-1,.56-2,1-3.08,1.51H23.25c-3.12-1.32-5.89-3.26-8.84-4.89C11.2,41.33,8,39.45,4.85,37.62a3.79,3.79,0,0,1-1.7-1.68l4.64-2.63c1.12-.65,2.24-1.3,3.37-1.94a5.45,5.45,0,0,1,.55-.25c.09.14.19.28.28.43a14.19,14.19,0,0,0,19.87,4.26,14.81,14.81,0,0,0,4.43-4.69c.74.4,1.49.79,2.21,1.21Z"/><path class="cls-4" d="M36.29,31.12a14.81,14.81,0,0,1-4.43,4.69A14.19,14.19,0,0,1,12,31.55c-.09-.15-.19-.29-.28-.43a14.22,14.22,0,0,1-1.79-5.48,13.76,13.76,0,0,1,4.16-11.75A14.14,14.14,0,0,1,36,16.5l.22.3c0,.06-.06.14-.11.17l-6,3.47a7,7,0,0,0-12.2,7,2.15,2.15,0,0,0,.19.37A6.87,6.87,0,0,0,24.79,31a6.65,6.65,0,0,0,5.32-3.52,1.43,1.43,0,0,1,.22.08l5.75,3.34A1.11,1.11,0,0,1,36.29,31.12Z"/><path class="cls-5" d="M36.29,31.12a1.11,1.11,0,0,0-.21-.22l-5.75-3.34a1.43,1.43,0,0,0-.22-.08l-2.85-1.67c-1-.6-2.05-1.22-3.08-1.83.25-.18.49-.38.75-.53l5.17-3,6-3.47c.05,0,.07-.11.11-.17.68-.35,1.37-.67,2-1.05,2.18-1.24,4.35-2.5,6.53-3.75a7.65,7.65,0,0,1,.52,1.94q.06,10.06,0,20.12A8.12,8.12,0,0,1,44.82,36L38.5,32.33C37.78,31.91,37,31.52,36.29,31.12Zm-.84-9.34V23.2h1.07v1.7H35.45v1.43h1.11v1.09H38V26.34h1.68v1.08h1.43V26.3h1.08V24.88H41.1v-1.7h1.07V21.76H41v-1.1H39.65v1.08H37.94V20.66h-1.4v1.12Z"/><path class="cls-1" d="M30.1,20.44l-5.17,3c-.26.15-.5.35-.75.53s-.6.24-.88.4l-5.4,3.1a7,7,0,0,1,12.2-7Z"/><path class="cls-3" d="M17.9,27.48l5.4-3.1c.28-.16.59-.27.88-.4,1,.61,2.05,1.23,3.08,1.83l2.85,1.67A6.65,6.65,0,0,1,24.79,31a6.87,6.87,0,0,1-6.7-3.15A2.15,2.15,0,0,1,17.9,27.48Z"/><path class="cls-6" d="M35.45,21.78h1.09V20.66h1.4v1.08h1.71V20.66H41v1.1h1.13v1.42H41.1v1.7h1.07V26.3H41.09v1.12H39.66V26.34H38v1.08H36.56V26.33H35.45V24.9h1.07V23.2H35.45Zm4.2,1.43H38v1.66h1.66Z"/><path class="cls-7" d="M39.65,23.21v1.66H38V23.21Z"/></svg>