<svg id="Layer_1" data-name="Layer 1" xmlns="http://www.w3.org/2000/svg" viewBox="0 0 42.74 48"><defs><style>.cls-1{fill:#b24896;}.cls-2{fill:#78297a;}.cls-3{fill:#fefefe;}.cls-4{fill:#972d88;}.cls-5{fill:#fcf9fc;}.cls-6{fill:#9b368b;}</style></defs><path class="cls-1" d="M23.06,0h1.31a10.36,10.36,0,0,1,1.46.59q8.63,5,17.24,9.93A3.61,3.61,0,0,1,44.54,12c-2.18,1.25-4.35,2.51-6.54,3.75-.66.38-1.35.7-2,1.05a2.86,2.86,0,0,1-.22-.3,14.14,14.14,0,0,0-22-2.61A13.76,13.76,0,0,0,9.64,25.64a14.22,14.22,0,0,0,1.79,5.48,4.6,4.6,0,0,0-.55.25c-1.13.64-2.25,1.29-3.37,1.94L2.87,35.94a4,4,0,0,1-.51-2.2q0-9.72,0-19.45a4.22,4.22,0,0,1,2.29-3.95c3.92-2.22,7.8-4.52,11.74-6.73C18.59,2.37,20.65.86,23.06,0Z" transform="translate(-2.35)"/><path class="cls-2" d="M44.54,36a3.62,3.62,0,0,1-1.61,1.58q-7.74,4.47-15.47,8.91c-1,.56-2.06,1-3.09,1.51H23c-3.12-1.32-5.9-3.26-8.84-4.89-3.21-1.78-6.38-3.66-9.56-5.49a3.74,3.74,0,0,1-1.7-1.68l4.64-2.63c1.12-.65,2.24-1.3,3.37-1.94a4.6,4.6,0,0,1,.55-.25l.28.43a14.19,14.19,0,0,0,19.87,4.26A14.92,14.92,0,0,0,36,31.12c.74.4,1.48.79,2.21,1.21Z" transform="translate(-2.35)"/><path class="cls-3" d="M36,31.12a14.92,14.92,0,0,1-4.43,4.69,14.19,14.19,0,0,1-19.87-4.26l-.28-.43a14.22,14.22,0,0,1-1.79-5.48A13.76,13.76,0,0,1,13.8,13.89a14.14,14.14,0,0,1,22,2.61,2.86,2.86,0,0,0,.22.3c0,.06-.06.14-.11.17l-6.06,3.47a7,7,0,0,0-12.2,7,3.22,3.22,0,0,0,.2.37A6.87,6.87,0,0,0,24.51,31a6.67,6.67,0,0,0,5.32-3.52,2,2,0,0,1,.22.08L35.8,30.9A1.11,1.11,0,0,1,36,31.12Z" transform="translate(-2.35)"/><path class="cls-4" d="M36,31.12a1.11,1.11,0,0,0-.21-.22l-5.75-3.34a2,2,0,0,0-.22-.08L27,25.81,23.9,24a7.81,7.81,0,0,1,.75-.53l5.16-3L35.87,17c.05,0,.07-.11.11-.17.67-.35,1.36-.67,2-1.05,2.19-1.24,4.36-2.5,6.54-3.75a7.65,7.65,0,0,1,.52,1.94q.06,10.06,0,20.12A7.65,7.65,0,0,1,44.54,36l-6.32-3.67C37.49,31.91,36.75,31.52,36,31.12Zm-.85-9.34V23.2h1.07v1.7H35.17v1.43h1.11v1.09H37.7V26.34h1.68v1.08H40.8V26.3h1.09V24.88H40.82v-1.7h1.07V21.76H40.76v-1.1H39.37v1.08H37.66V20.66h-1.4v1.12Z" transform="translate(-2.35)"/><path class="cls-1" d="M29.81,20.44l-5.16,3a7.81,7.81,0,0,0-.75.53,8.93,8.93,0,0,0-.89.4l-5.4,3.1a7,7,0,0,1,12.2-7Z" transform="translate(-2.35)"/><path class="cls-2" d="M17.61,27.48l5.4-3.1a8.93,8.93,0,0,1,.89-.4L27,25.81l2.86,1.67A6.67,6.67,0,0,1,24.51,31a6.87,6.87,0,0,1-6.7-3.15A3.22,3.22,0,0,1,17.61,27.48Z" transform="translate(-2.35)"/><path class="cls-5" d="M35.16,21.78h1.1V20.66h1.4v1.08h1.71V20.66h1.39v1.1h1.13v1.42H40.82v1.7h1.07V26.3H40.8v1.12H39.38V26.34H37.7v1.08H36.28V26.33H35.17V24.9h1.06V23.2H35.16Zm4.2,1.43H37.71v1.66h1.65Z" transform="translate(-2.35)"/><path class="cls-6" d="M39.36,23.21v1.66H37.71V23.21Z" transform="translate(-2.35)"/></svg>