<svg id="Layer_1" data-name="Layer 1" xmlns="http://www.w3.org/2000/svg" viewBox="0 0 48 46.76"><defs><style>.cls-1{fill:#341312;}.cls-2{fill:#f7991e;}.cls-3{fill:#f6991e;}.cls-4{fill:#f6981e;}.cls-5{fill:#391511;}</style></defs><path class="cls-1" d="M48,8.51v32a2.29,2.29,0,0,0-.1.23,8.27,8.27,0,0,1-5.58,6.63,9.13,9.13,0,0,1-3,.49q-15.35.06-30.69,0A8.52,8.52,0,0,1,.24,41.42c-.07-.28-.16-.55-.24-.82V8.41a.67.67,0,0,0,.1-.23,8.57,8.57,0,0,1,8.55-7H39.44a8.52,8.52,0,0,1,8.32,6.46ZM19.54,29.18c1.11,0,2.22,0,3.33,0a.45.45,0,0,1,.53.37c.46,1.39,1,2.76,1.42,4.15a.56.56,0,0,0,.64.45c1.22,0,2.43,0,3.65,0,.55,0,.59,0,.41-.56l-2-5.49Q25,20.84,22.41,13.59c-.09-.28-.17-.5-.55-.5-1.58,0-3.16,0-4.73,0-.33,0-.41.11-.45.43a9.81,9.81,0,0,1-.36,1.87c-.68,2.06-1.41,4.11-2.13,6.17L10.05,33.46c-.22.64-.18.69.5.69,1,0,2.09,0,3.14,0a.61.61,0,0,0,.69-.51c.41-1.35.88-2.69,1.29-4.05a.5.5,0,0,1,.59-.41C17.35,29.2,18.45,29.18,19.54,29.18Zm16.65-3q0-3.74,0-7.48c0-.38-.12-.51-.51-.51-1.15,0-2.31,0-3.46,0-.38,0-.53.11-.52.5V33.62c0,.39.12.55.54.55,1.13,0,2.25,0,3.37,0,.46,0,.59-.14.58-.59C36.18,31.12,36.19,28.66,36.19,26.19ZM36.47,14A2.33,2.33,0,0,0,34,11.51,2.44,2.44,0,0,0,31.5,14a2.49,2.49,0,1,0,5,0Z" transform="translate(0 -1.13)"/><path class="cls-2" d="M19.54,29.18c-1.09,0-2.19,0-3.28,0a.5.5,0,0,0-.59.41c-.41,1.36-.88,2.7-1.29,4.05a.61.61,0,0,1-.69.51c-1,0-2.1,0-3.14,0-.68,0-.72,0-.5-.69l4.14-11.89c.72-2.06,1.45-4.11,2.13-6.17a9.81,9.81,0,0,0,.36-1.87c0-.32.12-.44.45-.43,1.57,0,3.15,0,4.73,0,.38,0,.46.22.55.5Q25,20.84,27.56,28.1l2,5.49c.18.51.14.55-.41.56-1.22,0-2.43,0-3.65,0a.56.56,0,0,1-.64-.45c-.46-1.39-1-2.76-1.42-4.15a.45.45,0,0,0-.53-.37C21.76,29.19,20.65,29.18,19.54,29.18Zm2.52-4.06L19.55,17l-.1,0L17,25.12Z" transform="translate(0 -1.13)"/><path class="cls-3" d="M36.19,26.19c0,2.47,0,4.93,0,7.39,0,.45-.12.6-.58.59-1.12,0-2.24,0-3.37,0-.42,0-.54-.16-.54-.55V18.7c0-.39.14-.5.52-.5,1.15,0,2.31,0,3.46,0,.39,0,.51.13.51.51Q36.18,22.46,36.19,26.19Z" transform="translate(0 -1.13)"/><path class="cls-4" d="M36.47,14a2.49,2.49,0,1,1-5,0A2.44,2.44,0,0,1,34,11.51,2.33,2.33,0,0,1,36.47,14Z" transform="translate(0 -1.13)"/><path class="cls-5" d="M22.06,25.12H17L19.45,17l.1,0Z" transform="translate(0 -1.13)"/></svg>