<svg id="Layer_1" data-name="Layer 1" xmlns="http://www.w3.org/2000/svg" viewBox="0 0 48 46.85"><defs><style>.cls-1{fill:#071b34;}.cls-2{fill:#48a0d8;}.cls-3{fill:#071c35;}</style></defs><path class="cls-1" d="M0,40.12V7.87a.72.72,0,0,0,.1-.22A8.5,8.5,0,0,1,2.29,3.28,8.42,8.42,0,0,1,8.65.58q10,0,20,0c3.58,0,7.16,0,10.74,0a8.5,8.5,0,0,1,8.23,6.15c.13.44.22.89.33,1.33V40c-.06.22-.14.43-.18.65a8.47,8.47,0,0,1-7.45,6.67c-.5,0-1,.07-1.5.07H8.65A8.52,8.52,0,0,1,.24,40.94C.17,40.67.08,40.4,0,40.12ZM15.16,27c.38,0,.73,0,1.06,0,1.17-.06,2.35-.05,3.5-.21a7.15,7.15,0,0,0,4.65-2.44,6.85,6.85,0,0,0,1.54-4.41,6.66,6.66,0,0,0-3.7-6.46,11.05,11.05,0,0,0-5-1c-2,0-4,.09-6,.12-.37,0-.44.16-.44.48q0,10,0,20.06c0,.42.14.54.54.53,1.06,0,2.12,0,3.19,0,.64,0,.64,0,.64-.65C15.16,31,15.16,29.06,15.16,27ZM28.1,29.18a3.55,3.55,0,0,0-.06.47c0,1,0,1.94,0,2.91a.72.72,0,0,0,.52.77,11.45,11.45,0,0,0,3.69.75,8.79,8.79,0,0,0,5-.9,4.49,4.49,0,0,0,2.44-4,4.13,4.13,0,0,0-2.28-4c-.84-.47-1.74-.83-2.6-1.25a17.64,17.64,0,0,1-2-1,.88.88,0,0,1,.06-1.61,2.18,2.18,0,0,1,.76-.19,9.18,9.18,0,0,1,4.68.82c.45.21.62.11.62-.36,0-1,0-1.91,0-2.86a.61.61,0,0,0-.53-.7c-1-.18-2.08-.42-3.13-.51a8.12,8.12,0,0,0-4.62.81,4.62,4.62,0,0,0,.29,8.36c1,.51,2.07.92,3.09,1.4a4.45,4.45,0,0,1,1.09.71.82.82,0,0,1-.23,1.39,2.49,2.49,0,0,1-.75.22,7.3,7.3,0,0,1-3.38-.26C29.86,29.87,29,29.52,28.1,29.18Z" transform="translate(0 -0.57)"/><path class="cls-2" d="M15.16,27c0,2.06,0,4,0,6,0,.65,0,.65-.64.65-1.07,0-2.13,0-3.19,0-.4,0-.54-.11-.54-.53q0-10,0-20.06c0-.32.07-.48.44-.48,2,0,4-.12,6-.12a11.05,11.05,0,0,1,5,1,6.66,6.66,0,0,1,3.7,6.46,6.85,6.85,0,0,1-1.54,4.41,7.15,7.15,0,0,1-4.65,2.44c-1.15.16-2.33.15-3.5.21C15.89,27,15.54,27,15.16,27Zm0-3.76c.72,0,1.43,0,2.14,0a6.37,6.37,0,0,0,2.85-.78,3.25,3.25,0,0,0,.16-5.22,4.1,4.1,0,0,0-1.67-.65c-1.15-.1-2.32,0-3.48,0Z" transform="translate(0 -0.57)"/><path class="cls-2" d="M28.1,29.18c.93.34,1.76.69,2.61.93a7.3,7.3,0,0,0,3.38.26,2.49,2.49,0,0,0,.75-.22.82.82,0,0,0,.23-1.39A4.45,4.45,0,0,0,34,28.05c-1-.48-2.09-.89-3.09-1.4a4.62,4.62,0,0,1-.29-8.36,8.12,8.12,0,0,1,4.62-.81c1.05.09,2.09.33,3.13.51a.61.61,0,0,1,.53.7c0,.95,0,1.9,0,2.86,0,.47-.17.57-.62.36a9.18,9.18,0,0,0-4.68-.82,2.18,2.18,0,0,0-.76.19.88.88,0,0,0-.06,1.61,17.64,17.64,0,0,0,2,1c.86.42,1.76.78,2.6,1.25a4.13,4.13,0,0,1,2.28,4,4.49,4.49,0,0,1-2.44,4,8.79,8.79,0,0,1-5,.9,11.45,11.45,0,0,1-3.69-.75.72.72,0,0,1-.52-.77c0-1,0-1.94,0-2.91A3.55,3.55,0,0,1,28.1,29.18Z" transform="translate(0 -0.57)"/><path class="cls-3" d="M15.2,23.24V16.55c1.16,0,2.33-.07,3.48,0a4.1,4.1,0,0,1,1.67.65,3.25,3.25,0,0,1-.16,5.22,6.37,6.37,0,0,1-2.85.78C16.63,23.27,15.92,23.24,15.2,23.24Z" transform="translate(0 -0.57)"/></svg>