<svg id="Layer_1" data-name="Layer 1" xmlns="http://www.w3.org/2000/svg" viewBox="0 0 47.42 47.98"><defs><style>.cls-1{fill:#ffd53d;}.cls-2{fill:#4482b4;}.cls-3{fill:#4381b3;}.cls-4{fill:#4584b6;}.cls-5{fill:#4685b7;}.cls-6{fill:#4483b5;}.cls-7{fill:#4686b8;}.cls-8{fill:#4382b3;}.cls-9{fill:#4787b9;}.cls-10{fill:#ffd850;}.cls-11{fill:#ffe7a0;}.cls-12{fill:#548abb;}.cls-13{fill:#ffe69b;}.cls-14{fill:#95b1d3;}.cls-15{fill:#86a5ca;}.cls-16{fill:#769ec7;}.cls-17{fill:#82a5cb;}.cls-18{fill:#6b95c0;}.cls-19{fill:#739ac3;}.cls-20{fill:#fee875;}.cls-21{fill:#316a99;}.cls-22{fill:#fee366;}.cls-23{fill:#fee264;}.cls-24{fill:#fedf5a;}.cls-25{fill:#fee05c;}.cls-26{fill:#fee160;}.cls-27{fill:#fedd56;}.cls-28{fill:#fee468;}.cls-29{fill:#3f7bac;}.cls-30{fill:#3f7cad;}.cls-31{fill:#407dae;}.cls-32{fill:#3871a2;}.cls-33{fill:#3a74a5;}.cls-34{fill:#3974a4;}.cls-35{fill:#3873a4;}.cls-36{fill:#fddd57;}.cls-37{fill:#fee56b;}.cls-38{fill:#3e7aab;}.cls-39{fill:#407eaf;}.cls-40{fill:#3e79ab;}.cls-41{fill:#3a76a6;}.cls-42{fill:#fee56e;}.cls-43{fill:#3771a1;}.cls-44{fill:#fee672;}.cls-45{fill:#ffd94b;}.cls-46{fill:#ffd541;}.cls-47{fill:#ffda4d;}.cls-48{fill:#407fb0;}.cls-49{fill:#fedc51;}.cls-50{fill:#3d78a9;}.cls-51{fill:#ffd642;}.cls-52{fill:#3b77a7;}.cls-53{fill:#3670a0;}.cls-54{fill:#fedb50;}.cls-55{fill:#fedb52;}.cls-56{fill:#4382b4;}.cls-57{fill:#3b76a7;}.cls-58{fill:#3d77a8;}.cls-59{fill:#ffdf5b;}.cls-60{fill:#4280b0;}.cls-61{fill:#fedb4f;}.cls-62{fill:#ffd847;}.cls-63{fill:#4a8abc;}.cls-64{fill:#ffd744;}.cls-65{fill:#ffde59;}.cls-66{fill:#fee46a;}.cls-67{fill:#4280b2;}.cls-68{fill:#4381b2;}.cls-69{fill:#feda4d;}.cls-70{fill:#3c78a9;}.cls-71{fill:#ffd845;}.cls-72{fill:#4788ba;}.cls-73{fill:#4a8bbe;}.cls-74{fill:#3c75a7;}.cls-75{fill:#fee05e;}.cls-76{fill:#fee15e;}.cls-77{fill:#fee56c;}.cls-78{fill:#4887b9;}.cls-79{fill:#437fb2;}.cls-80{fill:#fee670;}.cls-81{fill:#ffd949;}.cls-82{fill:#ffd846;}.cls-83{fill:#4989bb;}.cls-84{fill:#3d7aaa;}.cls-85{fill:#4c8dc0;}.cls-86{fill:#3974a6;}.cls-87{fill:#4b8cbf;}.cls-88{fill:#417daf;}.cls-89{fill:#4989bc;}.cls-90{fill:#3771a0;}.cls-91{fill:#4383b5;}.cls-92{fill:#4888bb;}.cls-93{fill:#fee56d;}.cls-94{fill:#498bbd;}.cls-95{fill:#4888ba;}.cls-96{fill:#4e8ec1;}.cls-97{fill:#4a88bb;}.cls-98{fill:#fff;}.cls-99{fill:#4987b9;}.cls-100{fill:#326b9a;}.cls-101{fill:#ffd643;}.cls-102{fill:#336c9b;}.cls-103{fill:#346c9c;}.cls-104{fill:#356f9f;}.cls-105{fill:#346e9d;}.cls-106{fill:#356f9e;}.cls-107{fill:#346e9e;}.cls-108{fill:#36709f;}.cls-109{fill:#356d9d;}.cls-110{fill:#336b9c;}.cls-111{fill:#3a75a6;}</style></defs><path class="cls-1" d="M35.35,41.82a4.68,4.68,0,0,1-1.9,3.45,12,12,0,0,1-4.91,2.15,18.4,18.4,0,0,1-3,.49c-.21.1-.46,0-.67.08h-.28a.91.91,0,0,0-.65,0h-1c-.14-.11-.33,0-.48-.08l-1-.12c-.08-.07-.25,0-.28-.11s.1-.22.2-.3c.7-.52,1.41-1,2.12-1.53,1.48-1.05,2.94-2.11,4.42-3.15.15-.1.29-.26.5-.18a.7.7,0,0,1,.23.35,2,2,0,0,0,1.85,1.22,1.9,1.9,0,0,0,1.83-1.24,2,2,0,0,0-.33-2.18,2.12,2.12,0,0,1-.35-.44c0-.19.13-.27.25-.36,1-.74,2.07-1.49,3.12-2.22.11-.08.33-.45.45,0,0,1.23,0,2.46,0,3.69A1.18,1.18,0,0,1,35.35,41.82Z" transform="translate(-0.29 -0.01)"/><path class="cls-2" d="M16.6,10.77H16c.09-.45.48-.69.74-1,.61-.78,1.3-1.49,1.89-2.28a10.77,10.77,0,0,0,.77-.88c.69-.72,1.29-1.51,1.95-2.26C22.61,2.94,23.76,1.49,25,.12l.12,0a.55.55,0,0,1,.18,0c.09,0,.2,0,.28,0h.1c.13.2,0,.31-.15.44-2,2.36-4,4.74-6.06,7.1-.8.93-1.6,1.87-2.38,2.82A1.22,1.22,0,0,1,16.6,10.77Z" transform="translate(-0.29 -0.01)"/><path class="cls-3" d="M17.35,10.77h-.47c0-.35.32-.52.51-.74C19.3,7.8,21.18,5.55,23.1,3.34,24.06,2.23,25,1.09,26,0h.18c.06.13.19.06.28.11,0,.31-.25.49-.42.69-2.38,2.76-4.73,5.54-7.1,8.31-.34.41-.69.8-1,1.22A1.41,1.41,0,0,1,17.35,10.77Z" transform="translate(-0.29 -0.01)"/><path class="cls-4" d="M23.53,0h.84c.06.19-.09.28-.18.39C22.82,2,21.45,3.62,20.08,5.23c-.11.12-.21.28-.42.23a.88.88,0,0,1-.24-.64.63.63,0,0,1,.19-.36C20.8,3,22,1.6,23.25.19A.48.48,0,0,1,23.36.1.91.91,0,0,0,23.53,0Z" transform="translate(-0.29 -0.01)"/><path class="cls-5" d="M23.44.1,20,4.2c-.16.18-.3.39-.45.58-.31,0-.33-.32-.43-.54s.24-.43.4-.62c.93-1.12,1.9-2.21,2.84-3.33A.64.64,0,0,1,22.52.1,1.4,1.4,0,0,0,22.69,0H23C23.11.12,23.3,0,23.44.1Z" transform="translate(-0.29 -0.01)"/><path class="cls-6" d="M19.69,5.44a16.35,16.35,0,0,0,1.47-1.65C22,2.85,22.79,1.88,23.6.93c.26-.31.51-.62.77-.92h.57a.22.22,0,0,1,0,.12c-1.12,1.37-2.29,2.7-3.43,4.05-.54.64-1.08,1.27-1.64,1.91-.08.09-.16.34-.38.13A1.19,1.19,0,0,1,19.69,5.44Z" transform="translate(-0.29 -0.01)"/><path class="cls-7" d="M22.59.11,19.13,4.22c-.29,0-.39-.19-.52-.37s.23-.47.39-.66c.77-1,1.61-1.87,2.38-2.82A2.51,2.51,0,0,1,21.75,0H22c.08.08.19,0,.28,0h.18A.1.1,0,0,1,22.59.11Z" transform="translate(-0.29 -0.01)"/><path class="cls-8" d="M26,0a6.7,6.7,0,0,1-1.14,1.45c-1,1.25-2.08,2.47-3.13,3.69-.82,1-1.65,1.9-2.47,2.86l-2.35,2.76H16.6l4-4.74,5-5.81A.78.78,0,0,0,25.69,0Z" transform="translate(-0.29 -0.01)"/><path class="cls-9" d="M21.75,0a10.07,10.07,0,0,1-1.22,1.54c-.61.78-1.33,1.45-1.87,2.28-.17.09-.26,0-.33-.14s.24-.43.4-.61c.81-1,1.63-1.92,2.45-2.88l.1-.08c.07,0,.16,0,.19-.11Z" transform="translate(-0.29 -0.01)"/><path class="cls-10" d="M23.91,48a.53.53,0,0,1,.65,0Z" transform="translate(-0.29 -0.01)"/><path class="cls-11" d="M24.84,48c.21-.16.44-.08.67-.08a.22.22,0,0,0,0,.08Z" transform="translate(-0.29 -0.01)"/><path class="cls-12" d="M23.44.1C23.28.08,23.1.16,23,0h.56Z" transform="translate(-0.29 -0.01)"/><path class="cls-13" d="M22.39,47.91c.17,0,.35-.07.48.08h-.46S22.4,47.94,22.39,47.91Z" transform="translate(-0.29 -0.01)"/><path class="cls-14" d="M22.31.1c-.1,0-.22,0-.28-.09h.28s0,0,0,.06S22.32.1,22.31.1Z" transform="translate(-0.29 -0.01)"/><path class="cls-15" d="M25.59,0c-.06.12-.18.08-.28.09s0,0,0-.06,0,0,0,0Z" transform="translate(-0.29 -0.01)"/><path class="cls-16" d="M22.59.11H22.5s0,0,0-.06,0,0,0,0h.19Z" transform="translate(-0.29 -0.01)"/><path class="cls-17" d="M22.5,0V.1h-.19V0Z" transform="translate(-0.29 -0.01)"/><path class="cls-18" d="M24.94.1V0h.18s0,0,0,.06,0,0,0,0h0A.13.13,0,0,1,24.94.1Z" transform="translate(-0.29 -0.01)"/><path class="cls-19" d="M25.12.1V0h.19V.1Z" transform="translate(-0.29 -0.01)"/><path class="cls-20" d="M12.56,34.69c0-1.58,0-3.16,0-4.73a5.85,5.85,0,0,1,4.85-5.31,8.88,8.88,0,0,1,1.26-.08H30.18c-.11.27-.36.17-.56.21h-.48c-.32,0-.64,0-1,0h-.45a2.39,2.39,0,0,0-1.82.53c-4.21,3-8.45,6-12.66,9.05C13,34.5,12.86,34.73,12.56,34.69Z" transform="translate(-0.29 -0.01)"/><path class="cls-21" d="M35.35,17.84a5.69,5.69,0,0,1-5,5.24c-1.41.07-2.82,0-4.23,0-.42,0-.2-.23-.09-.35l1.62-1.92c1.75-2,3.48-4.07,5.21-6.11.73-.85,1.45-1.71,2.2-2.54.08-.08.26-.5.36,0,0,1.71,0,3.42,0,5.13A1.26,1.26,0,0,1,35.35,17.84Z" transform="translate(-0.29 -0.01)"/><path class="cls-22" d="M12.56,39.75v-1a1.41,1.41,0,0,1,.4-.44q8.94-6.39,17.89-12.75,7.14-5.1,14.3-10.2c.17-.12.33-.3.58-.23a2.91,2.91,0,0,1,.37.75c-.07.21-.26.3-.42.42L31.34,26.49C26.56,29.91,21.76,33.31,17,36.74c-1.33,1-2.68,1.9-4,2.84C12.85,39.67,12.74,39.82,12.56,39.75Z" transform="translate(-0.29 -0.01)"/><path class="cls-23" d="M12.56,39.75l6.79-4.85,9.78-7,6.22-4.44L44.49,17c.53-.38,1.07-.74,1.61-1.11a2,2,0,0,1,.29.75.66.66,0,0,1-.3.34l-13.5,9.63C27.35,30.31,22.1,34,16.87,37.78c-1.24.89-2.48,1.78-3.74,2.65-.17.12-.32.32-.57.25Z" transform="translate(-0.29 -0.01)"/><path class="cls-24" d="M35.35,41.82l0-4.32c-.2-.47-.61-.32-1-.34s-.64,0-1,0h-.32c-.25,0-.49,0-.74,0s-.43,0-.65,0-.44,0-.66,0-.43,0-.65,0-.39,0-.58,0-.61,0-.91,0-.39,0-.58,0-.56,0-.83,0-.45,0-.67,0-.5,0-.74,0-.51,0-.76,0-.45,0-.67,0-.8.14-.86-.44c0-.21,0-.42,0-.63a.41.41,0,0,1,.12-.32c-2.11,1.52-4.21,3-6.3,4.49l-4.11,2.93a.73.73,0,0,1-.46.21.68.68,0,0,1-.19-.45c-.1-.28.11-.4.28-.52,2.24-1.59,4.46-3.2,6.7-4.79,3.71-2.63,7.41-5.29,11.12-7.93q4.86-3.45,9.72-6.93l5.76-4.08c.15-.12.3-.31.53-.14a1.11,1.11,0,0,1,.12.56,4.13,4.13,0,0,1-1.26,1l-14,10-7.34,5.23a.94.94,0,0,1,.31-.06c.31,0,.63,0,.94,0h1.35c.2,0,.4,0,.59,0s.56,0,.84,0,.5,0,.75,0,.44,0,.66,0,.55,0,.83,0,.33,0,.5,0c.33,0,.66,0,1,0,.17,0,.33,0,.5,0s.55,0,.82,0,.33,0,.49,0,.44,0,.66,0,.51,0,.76,0c.47,0,.93,0,1.39,0s.95,0,1.43,0h2.52c.23,0,.48,0,.66.16a1.22,1.22,0,0,1-.6,0c-5.43,0-10.86,0-16.29,0-.48,0-.61.12-.59.59,0,.85,0,.85.88.85,3.35,0,6.71,0,10.06,0,.41,0,.53.1.52.52,0,1.26,0,2.52,0,3.79A1.08,1.08,0,0,1,35.35,41.82Z" transform="translate(-0.29 -0.01)"/><path class="cls-25" d="M12.75,42.66a.41.41,0,0,1-.09-.37.65.65,0,0,1,.31-.83l18.22-13Q38,23.58,44.9,18.68l1.42-1c.2-.14.37-.17.44.13a.78.78,0,0,1,.11.47A11.45,11.45,0,0,1,45,19.68c-3.12,2.24-6.25,4.46-9.37,6.69-2.19,1.57-4.39,3.11-6.58,4.68-3.43,2.44-6.85,4.9-10.29,7.34C16.78,39.81,14.8,41.29,12.75,42.66Z" transform="translate(-0.29 -0.01)"/><path class="cls-26" d="M12.56,40.68l9-6.4L28,29.72l7.85-5.61,9.25-6.61c.43-.31.87-.6,1.31-.9a3.08,3.08,0,0,1,.28.84.34.34,0,0,1-.12.06,24.08,24.08,0,0,0-2.39,1.64c-3.06,2.16-6.1,4.34-9.15,6.52q-5.92,4.23-11.85,8.46C19.77,36.54,16.36,39,13,41.38c-.12.08-.24.22-.42.15Z" transform="translate(-0.29 -0.01)"/><path class="cls-27" d="M27.1,35.42H25.69c0-.24.16-.32.3-.42,5.18-3.7,10.37-7.38,15.55-11.09,1.71-1.22,3.43-2.43,5.14-3.66.17-.12.32-.33.58-.19a2.42,2.42,0,0,1,.16.85,3.71,3.71,0,0,1-1.06.83q-9,6.42-17.94,12.81A7.72,7.72,0,0,1,27.1,35.42Z" transform="translate(-0.29 -0.01)"/><path class="cls-28" d="M45.73,15.1c-1.16.81-2.33,1.6-3.48,2.42L37.32,21,28,27.68c-2.3,1.65-4.61,3.28-6.91,4.92l-8.57,6.12V38c1.3-1,2.61-1.87,3.92-2.8,4.36-3.13,8.75-6.23,13.11-9.36l2.09-1.51a8,8,0,0,0,3.71-2.64c1.34-1,2.73-2,4.09-2.95,1.81-1.31,3.63-2.59,5.44-3.88.15-.11.28-.32.53-.19A1.4,1.4,0,0,1,45.73,15.1Z" transform="translate(-0.29 -0.01)"/><path class="cls-1" d="M41.45,35.45l-3.2,0c0-.2.16-.26.28-.34,2.6-1.89,5.25-3.73,7.86-5.61a.62.62,0,0,1,.33-.17c.16,0,.23.06.15.23a11.17,11.17,0,0,1-2.29,4.59A4.15,4.15,0,0,1,41.45,35.45Z" transform="translate(-0.29 -0.01)"/><path class="cls-29" d="M20.63,12.27h.84c0,.29-.18.45-.34.63l-7,8.22C12,23.57,10,26,7.84,28.48c-1.46,1.7-2.9,3.41-4.37,5.11-.08.1-.14.21-.27.25a1.36,1.36,0,0,1-.39-.44c-.12-.28.08-.45.23-.62q2.87-3.33,5.71-6.69l5.58-6.55c2-2.34,4-4.67,6-7C20.39,12.42,20.53,12.37,20.63,12.27Z" transform="translate(-0.29 -0.01)"/><path class="cls-20" d="M36.85,17.34c0-1.57,0-3.15,0-4.72,0-.3.12-.36.39-.36,1.48,0,3,0,4.44,0a3.57,3.57,0,0,1,1.74.47A7,7,0,0,1,42,13.86q-2.24,1.62-4.49,3.22C37.29,17.21,37.12,17.41,36.85,17.34Z" transform="translate(-0.29 -0.01)"/><path class="cls-30" d="M20.63,12.27c-.88,1.15-1.85,2.22-2.79,3.32l-3,3.51c-.81.95-1.63,1.88-2.43,2.83-1,1.18-2,2.37-3,3.55-.82,1-1.65,1.9-2.46,2.86-1,1.17-2,2.35-3,3.52l-.77.87a1.54,1.54,0,0,0-.41.67,2,2,0,0,1-.48-.68,15.83,15.83,0,0,1,1.59-2L8,26l4.1-4.81c1.35-1.58,2.7-3.15,4-4.73,1.12-1.32,2.26-2.63,3.37-4a4,4,0,0,1,.32-.26Z" transform="translate(-0.29 -0.01)"/><path class="cls-31" d="M19.78,12.27c-.88,1.15-1.84,2.22-2.78,3.31s-2,2.35-3,3.52C13.22,20,12.4,21,11.6,21.92c-1,1.18-2,2.37-3,3.55L6.2,28.26c-.83,1-1.63,2-2.48,2.9a12.11,12.11,0,0,1-1.39,1.56.82.82,0,0,1-.26-.46c-.13-.28.11-.44.24-.61l2.37-2.78c1.19-1.38,2.37-2.77,3.56-4.16s2.43-2.84,3.64-4.27l3.37-4c1.12-1.32,2.25-2.64,3.36-4,.1-.11.23-.16.33-.26Z" transform="translate(-0.29 -0.01)"/><path class="cls-32" d="M35,4.41c.07.26.29.46.27.75a12.89,12.89,0,0,1-1.64,2c-1.34,1.6-2.7,3.19-4.06,4.77l-4.15,4.87c-1.34,1.57-2.68,3.12-4,4.7-.39.46-.8.91-1.18,1.38a.53.53,0,0,1-.31.2h-.78c-.21-.15,0-.26,0-.36.93-1.07,1.84-2.16,2.76-3.24l4-4.73c1.41-1.64,2.81-3.29,4.22-4.94s2.67-3.12,4-4.69C34.4,4.87,34.55,4.5,35,4.41Z" transform="translate(-0.29 -0.01)"/><path class="cls-33" d="M17.44,23.16a1.33,1.33,0,0,1-.62.1c-.4,0-.24-.17-.12-.3.34-.39.65-.79,1-1.18,2-2.33,4-4.68,6-7S27.85,9.86,30,7.42c1.28-1.49,2.54-3,3.82-4.49,0-.05.09-.12.17-.15a1.63,1.63,0,0,1,.47.6c-.62.8-1.3,1.55-2,2.32l-4.62,5.41L23.67,16q-2,2.32-4,4.66c-.61.73-1.25,1.43-1.84,2.17A2,2,0,0,1,17.44,23.16Z" transform="translate(-0.29 -0.01)"/><path class="cls-34" d="M17.44,23.16l2.95-3.47,3-3.55c.81-1,1.63-1.88,2.43-2.82,1-1.18,2-2.38,3-3.55l2.56-3c.93-1.08,1.85-2.17,2.78-3.26.07-.08.12-.17.25-.17a1,1,0,0,1,.29.46A25.69,25.69,0,0,1,33,5.9l-4.13,4.84-4.68,5.48-4,4.7c-.57.68-1.14,1.35-1.74,2,.21,0,.41,0,.56.11H20a1,1,0,0,1,.61-.13h.24c.18,0,.36,0,.54,0s.2,0,.3,0,.3,0,.46,0,.25,0,.38,0,.25,0,.37,0,.31,0,.46,0,.2,0,.31,0,.36,0,.54,0h1c.24,0,.51-.07.72.13l4.44,0a1.93,1.93,0,0,1-.83.07Z" transform="translate(-0.29 -0.01)"/><path class="cls-35" d="M19,23.06h-.67c.1-.48.5-.72.76-1,1-1.19,2-2.34,3-3.51,1.14-1.35,2.27-2.71,3.42-4.06.79-.93,1.6-1.86,2.4-2.79,1-1.19,2-2.4,3-3.59s2-2.33,3-3.49c.22-.26.37-.59.7-.74a1,1,0,0,1,.25.57c-1,1.16-2,2.32-3,3.47s-2,2.32-3,3.49c-1.15,1.36-2.29,2.73-3.45,4.09-.8.94-1.62,1.88-2.43,2.82l-3,3.55C19.76,22.25,19.39,22.65,19,23.06Z" transform="translate(-0.29 -0.01)"/><path class="cls-36" d="M47.26,20.06a10,10,0,0,0-1.81,1.21c-1.77,1.23-3.52,2.5-5.28,3.75l-9.24,6.61L26,35.14a.81.81,0,0,0-.3.28h-1c0-.22.18-.27.31-.36,2.87-2.08,5.76-4.12,8.64-6.17L41.88,23l4.84-3.45c.12-.08.24-.2.42-.13A1.78,1.78,0,0,1,47.26,20.06Z" transform="translate(-0.29 -0.01)"/><path class="cls-37" d="M29.62,24.66c.19,0,.39.06.56-.08l.75-.1c.12.25-.09.33-.23.43-2.07,1.46-4.12,2.93-6.17,4.4-3.73,2.67-7.48,5.32-11.21,8-.23.16-.42.42-.76.38v-.84A7.84,7.84,0,0,1,14,35.75L29.13,24.92C29.29,24.81,29.46,24.76,29.62,24.66Z" transform="translate(-0.29 -0.01)"/><path class="cls-38" d="M3.2,33.84a15.25,15.25,0,0,1,1.44-1.77C5.82,30.65,7,29.25,8.22,27.84c1-1.17,2-2.32,3-3.49s2-2.35,3-3.52c.81-1,1.65-1.9,2.46-2.86,1-1.17,2-2.35,3-3.52.62-.72,1.25-1.42,1.82-2.18h.66c.07.17-.06.26-.15.36-1,1.26-2.1,2.47-3.15,3.71l-3,3.49c-1.19,1.38-2.37,2.78-3.55,4.17l-3.5,4.09-3.58,4.2c-.55.63-1.07,1.3-1.66,1.9A1,1,0,0,1,3.2,33.84Z" transform="translate(-0.29 -0.01)"/><path class="cls-4" d="M13,12.27h.84c0,.28-.17.43-.31.59-2.3,2.66-4.55,5.35-6.84,8C4.89,23,3.08,25.18,1.23,27.31a7.2,7.2,0,0,0-.48.74,4,4,0,0,1-.2-1.14,3.79,3.79,0,0,1,.88-1.14C3,23.9,4.59,22,6.18,20.18l4.62-5.41,1.82-2.13A2.47,2.47,0,0,1,13,12.27Z" transform="translate(-0.29 -0.01)"/><path class="cls-39" d="M18.94,12.27c-.88,1.15-1.85,2.22-2.79,3.32l-3,3.52c-.81.94-1.63,1.88-2.43,2.82l-3,3.52L5.4,28.21c-.84,1-1.68,2-2.53,3a3.23,3.23,0,0,0-.8,1.07,1.29,1.29,0,0,1-.29-.57c.07-.43.43-.65.68-.93q2.3-2.72,4.6-5.41L11.63,20c1.39-1.62,2.76-3.25,4.16-4.86.75-.86,1.47-1.74,2.22-2.59a3.45,3.45,0,0,1,.28-.26Z" transform="translate(-0.29 -0.01)"/><path class="cls-40" d="M4,34.54a1.06,1.06,0,0,1-.37-.29c0-.33.29-.5.48-.71C6.3,31,8.45,28.46,10.62,25.93l5.67-6.64c1.9-2.23,3.81-4.45,5.69-6.7a3.31,3.31,0,0,1,.33-.32h.57c.07.19-.09.29-.18.4-1.14,1.42-2.36,2.78-3.54,4.18s-2.4,2.82-3.61,4.23l-4.06,4.77c-1.37,1.6-2.73,3.21-4.1,4.8C6.27,32,5.2,33.29,4,34.54Z" transform="translate(-0.29 -0.01)"/><path class="cls-7" d="M.46,26.28a2.06,2.06,0,0,1-.08-.85.51.51,0,0,1,0-.27,14.67,14.67,0,0,1,1.62-2c1.14-1.38,2.32-2.73,3.48-4.1l3.61-4.23c.61-.71,1.23-1.41,1.82-2.14a2.18,2.18,0,0,1,.48-.43h.84c.09.2,0,.33-.16.46L8.76,16.57C7.22,18.38,5.69,20.18,4.14,22,2.92,23.41,1.71,24.86.46,26.28Z" transform="translate(-0.29 -0.01)"/><path class="cls-41" d="M16.43,23.36l-.77.26c-.22-.22,0-.36.12-.48.4-.48.81-.95,1.21-1.42,1.39-1.63,2.77-3.26,4.16-4.88l4.61-5.4c1.38-1.61,2.75-3.23,4.12-4.84C31,5.29,32.11,4,33.22,2.69c.11-.13.21-.29.42-.24a.61.61,0,0,1,.27.28,11.27,11.27,0,0,1-1.38,1.7C30.75,6.52,29,8.61,27.2,10.69,25.11,13.12,23,15.57,21,18L16.53,23.2A.37.37,0,0,0,16.43,23.36Z" transform="translate(-0.29 -0.01)"/><path class="cls-42" d="M28.12,24.66h1c0,.23-.19.31-.33.41-3.22,2.28-6.42,4.59-9.64,6.87-2.05,1.45-4.08,2.92-6.13,4.37-.14.1-.27.3-.49.15v-.65A2.37,2.37,0,0,1,13.5,35c4.73-3.34,9.41-6.73,14.13-10.08C27.79,24.81,28,24.76,28.12,24.66Z" transform="translate(-0.29 -0.01)"/><path class="cls-5" d="M.46,26.28a5.06,5.06,0,0,1,1.07-1.4c1.18-1.43,2.4-2.85,3.6-4.26,1-1.17,2-2.32,3-3.49s2-2.35,3-3.52a8.07,8.07,0,0,0,1.07-1.34H13c-.91,1.08-1.81,2.17-2.72,3.24s-2,2.42-3.07,3.62-2,2.32-3,3.49-2,2.34-3,3.51c-.23.27-.49.52-.73.78A1.36,1.36,0,0,1,.46,26.28Z" transform="translate(-0.29 -0.01)"/><path class="cls-43" d="M20.63,23.06H20c.62-.88,1.38-1.64,2.06-2.47,1-1.22,2-2.42,3.06-3.63s2-2.32,3-3.49,2-2.35,3-3.52l3-3.5a15.46,15.46,0,0,1,1.14-1.29,1.48,1.48,0,0,1,.11.66A25.37,25.37,0,0,1,33.59,8C32.38,9.37,31.17,10.8,30,12.22L25.88,17c-1.18,1.39-2.35,2.79-3.55,4.16A18.23,18.23,0,0,1,20.63,23.06Z" transform="translate(-0.29 -0.01)"/><path class="cls-44" d="M12.56,34.69l8.71-6.22c1.66-1.18,3.35-2.35,5-3.56a2.25,2.25,0,0,1,1.38-.25c0,.23-.19.3-.33.41C23.89,27.52,20.44,30,17,32.42l-3.69,2.63c-.23.16-.42.43-.76.38Z" transform="translate(-0.29 -0.01)"/><path class="cls-45" d="M32.25,35.42h-1c0-.18.13-.24.24-.31C36.72,31.36,42,27.59,47.25,23.86c.13-.1.24-.27.45-.14v.66a4.17,4.17,0,0,1-1.16.93c-4,2.84-8,5.72-12,8.56A19.58,19.58,0,0,1,32.25,35.42Z" transform="translate(-0.29 -0.01)"/><path class="cls-46" d="M46.87,29.53c-.22-.4-.38,0-.48.08-.84.57-1.67,1.18-2.5,1.78l-5.64,4H36.84c0-.27.18-.38.36-.5,2.82-2,5.62-4,8.44-6l1-.71c.29-.21.46-.21.63-.06A5.12,5.12,0,0,1,46.87,29.53Z" transform="translate(-0.29 -0.01)"/><path class="cls-47" d="M30.75,35.42h-.84c0-.24.16-.32.3-.42Q38,29.45,45.73,23.93l1.45-1c.13-.09.26-.25.45-.13a1.63,1.63,0,0,1,.06.76,4.22,4.22,0,0,0-1.26.78L31.39,35A3.18,3.18,0,0,1,30.75,35.42Z" transform="translate(-0.29 -0.01)"/><path class="cls-27" d="M23.9,36.65c0,.65.49.27.76.38,0,.28-.23.35-.39.47l-5.51,3.94c-1.57,1.12-3.16,2.22-4.7,3.38a1.78,1.78,0,0,1-.56-.66c-.06-.26.15-.36.31-.47,3-2.12,5.94-4.27,9-6.37C23.12,37.07,23.41,36.69,23.9,36.65Z" transform="translate(-0.29 -0.01)"/><path class="cls-48" d="M17.54,12.27h.56c0,.25-.16.37-.28.51-2.27,2.62-4.51,5.28-6.77,7.92-2.53,2.95-5,5.93-7.57,8.88-.45.52-.89,1-1.33,1.57-.12.15-.21.36-.45.35a.35.35,0,0,1-.11-.27.49.49,0,0,1,.15-.54l8.07-9.47c2.14-2.52,4.3-5,6.43-7.54A8.28,8.28,0,0,1,17.54,12.27Z" transform="translate(-0.29 -0.01)"/><path class="cls-49" d="M28.5,35.42h-.84c0-.18.13-.23.24-.31L47,21.51c.15-.11.33-.36.54,0l0,.37a10.83,10.83,0,0,1-1.68,1.26c-5.56,4-11.15,8-16.71,11.94A3.56,3.56,0,0,1,28.5,35.42Z" transform="translate(-0.29 -0.01)"/><path class="cls-50" d="M4.6,34.87a.63.63,0,0,1-.37-.21c-.13-.22,0-.36.15-.49,1.37-1.55,2.7-3.15,4.05-4.72s2.65-3.11,4-4.67l4.19-4.9c1.33-1.56,2.66-3.11,4-4.67.75-.89,1.53-1.76,2.26-2.68.09-.11.23-.16.33-.26h.47c0,.29-.19.45-.34.63l-7,8.22C13.84,24,11.41,26.84,9,29.69c-1.3,1.51-2.58,3.05-3.89,4.55C4.91,34.44,4.76,34.66,4.6,34.87Z" transform="translate(-0.29 -0.01)"/><path class="cls-51" d="M47.25,28.14c-.59-.05-.91.44-1.33.71-.81.53-1.59,1.12-2.38,1.69l-2.22,1.59c-.87.61-1.75,1.22-2.61,1.86a11.17,11.17,0,0,0-1.87,1.43h-1.4c0-.22.18-.27.31-.37l8.65-6.17,2.33-1.67a2,2,0,0,1,.39-.25c.29-.15.42-.08.32.26A2.4,2.4,0,0,1,47.25,28.14Z" transform="translate(-0.29 -0.01)"/><path class="cls-52" d="M33.09,2a.64.64,0,0,1,.3.24c.08.22-.08.35-.2.49-2.11,2.48-4.22,5-6.34,7.44q-3.42,4-6.83,8c-1.61,1.89-3.23,3.76-4.81,5.67L14,24.58c-.09-.21.09-.31.2-.43,1.95-2.33,3.94-4.63,5.91-6.95l5.15-6.06c2.1-2.45,4.18-4.92,6.3-7.36C32.06,3.18,32.55,2.56,33.09,2Z" transform="translate(-0.29 -0.01)"/><path class="cls-53" d="M21.38,23.06h-.57c.07-.49.49-.74.77-1.07,2.15-2.51,4.28-5,6.43-7.54,1.9-2.22,3.79-4.46,5.7-6.68.43-.5.86-1,1.3-1.52.09-.11.13-.31.34-.25a1,1,0,0,1,.06.5c0,3.6,0,7.19,0,10.79a1.16,1.16,0,0,1-.06.55c0-1.94,0-3.89,0-5.83-.21-.25-.1-.55-.13-.83s0-.61,0-.91V10c0-.19,0-.37,0-.56s0-.26,0-.39,0-.36,0-.55,0-.31,0-.46,0-.25,0-.38,0-.33,0-.5,0-.13-.08-.09c-.51.57-1,1.16-1.49,1.74-1.57,1.85-3.16,3.7-4.73,5.56-1.92,2.26-3.85,4.5-5.77,6.76A16.58,16.58,0,0,1,21.38,23.06Z" transform="translate(-0.29 -0.01)"/><path class="cls-54" d="M28.5,35.42a9.4,9.4,0,0,1,1.56-1.18l10.73-7.67,6.53-4.65a.53.53,0,0,1,.22-.08.7.7,0,0,1,.06.47A8.51,8.51,0,0,1,46,23.53L33.63,32.37Q31.82,33.66,30,35a4.52,4.52,0,0,1-.76.46Z" transform="translate(-0.29 -0.01)"/><path class="cls-6" d="M.75,28.05c-.06-.35.18-.56.36-.78,1-1.17,2-2.33,3-3.49s2-2.36,3-3.53,2-2.32,3-3.49,2-2.35,3-3.52a9.37,9.37,0,0,0,.8-1h.66c.07.22-.11.31-.22.43Q11,16.59,7.71,20.46C5.56,23,3.41,25.52,1.25,28a4.83,4.83,0,0,1-.34.45l-.06,0A.68.68,0,0,1,.75,28.05Z" transform="translate(-0.29 -0.01)"/><path class="cls-55" d="M47.51,21.47a.26.26,0,0,0-.34,0q-2.27,1.64-4.55,3.25l-5.19,3.71-9,6.45-.76.53H27.1a12.11,12.11,0,0,1,1.67-1.25q5.28-3.8,10.58-7.56c2.56-1.83,5.14-3.66,7.71-5.48.11-.08.24-.15.36-.22A1.5,1.5,0,0,1,47.51,21.47Z" transform="translate(-0.29 -0.01)"/><path class="cls-56" d="M1,29.35a2.22,2.22,0,0,1-.18-.84v0c2-2.4,4-4.75,6.05-7.12L11.48,16l2.93-3.45c.1-.11.21-.19.31-.29h.57c.07.19-.09.29-.18.4-1.2,1.43-2.42,2.85-3.63,4.27L7.42,21.71C6,23.33,4.66,25,3.26,26.58c-.61.7-1.2,1.43-1.82,2.13a2,2,0,0,0-.35.6Z" transform="translate(-0.29 -0.01)"/><path class="cls-45" d="M28.87,37h.94c.05.24-.15.32-.3.42-4.14,3-8.31,5.92-12.46,8.89a1.06,1.06,0,0,1-.37.18l-.55-.24c-.08-.34.23-.4.41-.53l4.19-3,7.58-5.41A4.48,4.48,0,0,1,28.87,37Z" transform="translate(-0.29 -0.01)"/><path class="cls-57" d="M33.09,2c-.13.51-.57.81-.88,1.18C30.68,5,29.12,6.77,27.57,8.57S24.64,12,23.19,13.71s-3,3.59-4.54,5.37c-1.35,1.59-2.72,3.16-4.07,4.74-.21.24-.4.51-.6.76l-.93.83c-.31-.11-.1-.27,0-.39.53-.65,1.09-1.28,1.63-1.92l4.12-4.83C20.18,16.65,21.55,15,23,13.41a11.06,11.06,0,0,1,1-1.14c.81-1.12,1.75-2.12,2.64-3.16C27.79,7.7,29,6.3,30.19,4.91,31,4,31.75,3.08,32.52,2.16a1,1,0,0,1,.4-.32Z" transform="translate(-0.29 -0.01)"/><path class="cls-46" d="M28.3,42.56a17.15,17.15,0,0,0-1.94,1.34l-5,3.59c-.3.21-.06.21,0,.3a6.08,6.08,0,0,1-1.4-.27c-.14-.32.14-.41.31-.53,1.44-1.05,2.89-2.07,4.33-3.11l3-2.14c.41-.29.53-.26.72.11C28.34,42.08,28.51,42.33,28.3,42.56Z" transform="translate(-0.29 -0.01)"/><path class="cls-31" d="M29.45.47a.73.73,0,0,1,.48.09c-.77,1-1.62,1.94-2.43,2.9L23.43,8.23c-.63.74-1.27,1.47-1.89,2.21a1.09,1.09,0,0,1-.44.33h-.85c0-.19.11-.28.2-.39l5.22-6.13,3-3.56A.62.62,0,0,1,29.45.47Z" transform="translate(-0.29 -0.01)"/><path class="cls-30" d="M21.1,10.77c1.24-1.44,2.49-2.88,3.73-4.33Q27.26,3.59,29.67.73c.08-.08.14-.17.26-.17a1.51,1.51,0,0,1,.75.18c-1.47,1.66-2.87,3.36-4.31,5s-2.66,3.13-4,4.69a2,2,0,0,1-.34.31Z" transform="translate(-0.29 -0.01)"/><path class="cls-58" d="M24,12.29c-.66.9-1.44,1.71-2.15,2.56s-1.64,2-2.47,2.91S17.81,19.6,17,20.52l-2.53,3c-.45.52-.9,1-1.34,1.55-.08.1-.32.17-.11.36l-.19.21a13.1,13.1,0,0,0-1.47,1.68C9.81,29.14,8.25,31,6.66,32.83A25.21,25.21,0,0,1,4.79,35a.18.18,0,0,1-.19-.09c0-.4.3-.58.5-.82q1.83-2.17,3.68-4.33c.94-1.11,1.9-2.21,2.84-3.33S13.67,24,14.7,22.77s2-2.32,3-3.49,2-2.35,3-3.52l2.43-2.83c.18-.21.35-.44.52-.66h.24A.09.09,0,0,1,24,12.29Z" transform="translate(-0.29 -0.01)"/><path class="cls-59" d="M12.75,42.66a8.76,8.76,0,0,1,1.62-1.23q6.3-4.53,12.63-9l7.14-5.08,9.79-7,2.94-2a.3.3,0,0,1,.08.28c-.4,0-.65.35-1,.56-2,1.41-4,2.85-6,4.27l-9.15,6.53-6.22,4.44-9.15,6.53c-.77.55-1.54,1.1-2.32,1.64-.16.11-.32.2-.33.42A.34.34,0,0,1,12.75,42.66Z" transform="translate(-0.29 -0.01)"/><path class="cls-60" d="M16.79,12.27h.46c.07.26-.14.4-.28.56-1.63,1.9-3.25,3.82-4.88,5.73L6.9,24.64C5.09,26.74,3.3,28.86,1.49,31a1.52,1.52,0,0,1-.19-.59c.54-.76,1.18-1.44,1.78-2.15C4.47,26.6,5.85,25,7.24,23.35s2.71-3.18,4.07-4.77c1.18-1.38,2.36-2.78,3.55-4.16.54-.62,1.06-1.26,1.6-1.89C16.55,12.42,16.69,12.37,16.79,12.27Z" transform="translate(-0.29 -0.01)"/><path class="cls-61" d="M29.25,35.42a12.74,12.74,0,0,1,1.67-1.25l11.24-8,5.31-3.78s.09,0,.13,0l0,.46a22.33,22.33,0,0,0-2.22,1.52c-1.7,1.19-3.38,2.42-5.07,3.63l-7.77,5.55-2.32,1.64a.85.85,0,0,0-.34.31Z" transform="translate(-0.29 -0.01)"/><path class="cls-29" d="M22,10.77a10.28,10.28,0,0,1,1.24-1.55c1-1.24,2.08-2.46,3.13-3.68l3-3.49c.24-.28.47-.57.71-.86s.29-.41.57-.45a1.25,1.25,0,0,1,.56.19A3.07,3.07,0,0,1,30.43,2c-2.11,2.44-4.17,4.92-6.28,7.35a14.3,14.3,0,0,1-1.27,1.42Z" transform="translate(-0.29 -0.01)"/><path class="cls-62" d="M30.37,37H31c.06.34-.23.45-.43.59-1.14.82-2.28,1.64-3.43,2.45q-4.47,3.21-9,6.38a1,1,0,0,0-.4.5,2.12,2.12,0,0,1-.75-.27c-.1-.37.25-.43.43-.57l3.77-2.7,8.54-6.08A2.23,2.23,0,0,1,30.37,37Z" transform="translate(-0.29 -0.01)"/><path class="cls-3" d="M15.57,12.27H16c.07.21-.11.31-.21.44-1.15,1.41-2.35,2.78-3.53,4.17S9.93,19.65,8.75,21C7.37,22.65,6,24.25,4.63,25.87c-1,1.16-2,2.32-3,3.48-.14.17-.24.42-.54.37A.54.54,0,0,1,1,29.35l0,0a7.3,7.3,0,0,1,1.29-1.64c1.9-2.27,3.83-4.51,5.75-6.77l5.12-6c.66-.77,1.33-1.53,2-2.32A2.52,2.52,0,0,1,15.57,12.27Z" transform="translate(-0.29 -0.01)"/><path class="cls-63" d="M.39,22.12a4,4,0,0,1,.1-1,7.11,7.11,0,0,1,1.27-1.66q1.82-2.14,3.64-4.27c.75-.87,1.5-1.75,2.23-2.63.1-.12.24-.16.34-.25h.85c0,.33-.24.5-.41.69-2.52,3-5.06,5.93-7.58,8.9C.72,22,.62,22.18.39,22.12Z" transform="translate(-0.29 -0.01)"/><path class="cls-64" d="M32.34,37h.75c0,.28-.23.35-.39.47-1.82,1.3-3.65,2.62-5.48,3.91C24.62,43.25,22,45.12,19.44,47a2,2,0,0,0-.32.26l-.09.1-.65-.19c0-.25.17-.35.33-.46Q24.85,42.29,31,37.92A8.16,8.16,0,0,1,32.34,37Z" transform="translate(-0.29 -0.01)"/><path class="cls-47" d="M27.47,37h.84c.05.24-.15.32-.3.42L16.42,45.71a2.79,2.79,0,0,1-.57.4,1,1,0,0,1-.47-.27c-.11-.35.21-.41.38-.54,1.18-.86,2.38-1.7,3.58-2.55l7.56-5.4A4.59,4.59,0,0,1,27.47,37Z" transform="translate(-0.29 -0.01)"/><path class="cls-37" d="M44.88,13.88a1.62,1.62,0,0,1,.42.55,11.42,11.42,0,0,1-1.67,1.26q-3.62,2.6-7.24,5.15c-.16.12-.32.34-.57.16l.56-1.13a1.56,1.56,0,0,1,.43-.42c2.55-1.8,5.08-3.63,7.63-5.43C44.56,13.93,44.68,13.74,44.88,13.88Z" transform="translate(-0.29 -0.01)"/><path class="cls-65" d="M47.14,19.41c-1.2.84-2.4,1.67-3.59,2.52l-5.12,3.66-9.37,6.69-4.4,3.14H24.2l1.69-1.21L39,24.88l7.39-5.28.69-.48A.33.33,0,0,1,47.14,19.41Z" transform="translate(-0.29 -0.01)"/><path class="cls-66" d="M12.56,37.68l9-6.39,6.22-4.43,3-2.12a.32.32,0,0,0,.16-.26l.75-.19a11.48,11.48,0,0,1-2.31,1.8c-3.3,2.38-6.62,4.74-9.93,7.1L13,37.75a.88.88,0,0,1-.46.21Z" transform="translate(-0.29 -0.01)"/><path class="cls-36" d="M23.9,36.65,13.81,43.82a2,2,0,0,0-.31.34.82.82,0,0,1-.29-.44c-.11-.27.11-.36.27-.47L19.37,39c1.3-.93,2.61-1.85,3.91-2.79.18-.13.35-.33.62-.25Z" transform="translate(-0.29 -0.01)"/><path class="cls-62" d="M33.56,35.42h-.84c0-.22.16-.29.29-.38,2.88-2.08,5.79-4.12,8.68-6.19,1.84-1.32,3.67-2.64,5.52-3.94.14-.09.26-.29.49-.16a3,3,0,0,1-.07,1l-.06,0c-.17-.27-.33-.1-.5,0l-4.42,3.15C39.81,31,37,33,34.12,35A4.54,4.54,0,0,1,33.56,35.42Z" transform="translate(-0.29 -0.01)"/><path class="cls-67" d="M16.79,12.27c-.89,1.15-1.85,2.22-2.79,3.32s-2,2.35-3,3.51c-.8.95-1.62,1.88-2.43,2.83l-3,3.55-2.3,2.69L1.84,29.88a2,2,0,0,1-.54.5c-.09-.08-.08-.18-.08-.29a2.94,2.94,0,0,1,.78-1c2.1-2.44,4.19-4.91,6.29-7.36l5.12-6,2.67-3.13c.1-.11.23-.16.33-.26Z" transform="translate(-0.29 -0.01)"/><path class="cls-51" d="M19,47.32v-.08c1.21-1,2.48-1.8,3.73-2.7,1.9-1.36,3.82-2.71,5.72-4.08l.39-.26c.11-.08.2,0,.24.11-.35.48-.57,1-.88,1.52-.09-.38-.32-.17-.46-.07l-4,2.87-3.48,2.5c-.14.11-.29.19-.3.39A3.36,3.36,0,0,1,19,47.32Z" transform="translate(-0.29 -0.01)"/><path class="cls-64" d="M47.44,27.22c0-.34-.14-.27-.33-.14l-2.24,1.59-5.57,4-3.86,2.76h-.75c0-.22.18-.27.31-.37,2.88-2.08,5.79-4.12,8.67-6.19C44.83,28,46,27.21,47.14,26.4c.11-.08.23-.23.37-.14s.06.25,0,.39A1,1,0,0,1,47.44,27.22Z" transform="translate(-0.29 -0.01)"/><path class="cls-68" d="M16.41,12.27l-2.79,3.32-3,3.52C9.84,20.05,9,21,8.22,21.93l-3,3.52L2.84,28.24,1.22,30.09a.53.53,0,0,1-.1-.37A11.81,11.81,0,0,0,2.58,28.1c.86-1,1.67-2,2.51-2.94l3-3.59c1-1.17,2-2.33,3-3.5s2-2.36,3-3.52c.65-.75,1.3-1.49,1.92-2.28Z" transform="translate(-0.29 -0.01)"/><path class="cls-39" d="M29.45.47a.64.64,0,0,0-.6.25Q27,2.91,25.14,5.09c-1,1.18-2,2.34-3,3.52l-1.85,2.16h-.56c-.07-.24.11-.37.24-.52C21.31,8.62,22.7,7,24.08,5.38L28,.76c.2-.23.39-.53.78-.38A1.2,1.2,0,0,1,29.45.47Z" transform="translate(-0.29 -0.01)"/><path class="cls-69" d="M30.75,35.42a11.62,11.62,0,0,1,1.59-1.2L43,26.58q2.11-1.51,4.25-3c.11-.08.25-.29.41,0v.19a22.65,22.65,0,0,0-2.15,1.47C43.77,26.44,42,27.71,40.24,29L31.75,35l-.53.38Z" transform="translate(-0.29 -0.01)"/><path class="cls-70" d="M23.16,12.27c-.87,1.16-1.86,2.21-2.79,3.32S18.46,17.87,17.49,19c-.8.95-1.62,1.89-2.43,2.83-1,1.18-2,2.37-3,3.55-.8.95-1.62,1.88-2.43,2.83l-3,3.55c-.65.76-1.3,1.51-2,2.25a1.64,1.64,0,0,0-.43.65L4,34.54c.08-.42.45-.63.69-.92,1.17-1.41,2.39-2.78,3.58-4.17,1.34-1.57,2.65-3.16,4-4.74,1.19-1.39,2.4-2.76,3.59-4.16,1.34-1.57,2.65-3.16,4-4.73,1-1.17,2-2.33,3-3.55Z" transform="translate(-0.29 -0.01)"/><path class="cls-71" d="M32.34,37c-.82.71-1.74,1.29-2.62,1.92l-9.26,6.63-1.68,1.17a1.32,1.32,0,0,0-.4.38A1,1,0,0,1,17.9,47c-.06-.24.14-.3.27-.39,4-2.9,8.1-5.77,12.15-8.67A8.16,8.16,0,0,1,31.68,37Z" transform="translate(-0.29 -0.01)"/><path class="cls-72" d="M9.94,12.27h.57c0,.34-.26.52-.44.73-2.26,2.64-4.5,5.3-6.77,7.93C2.43,21.94,1.58,23,.69,24c-.1.12-.18.31-.39.3v-.66a8.67,8.67,0,0,1,1.37-1.76Q3.76,19.4,5.86,17C7.11,15.48,8.37,14,9.62,12.53A4,4,0,0,1,9.94,12.27Z" transform="translate(-0.29 -0.01)"/><path class="cls-73" d="M6.85,12.39a2,2,0,0,1,.84-.1c.07.27-.15.39-.28.55Q5,15.65,2.62,18.46c-.55.65-1.13,1.29-1.66,1.95-.09.12-.19.27-.38.21A4.78,4.78,0,0,1,.77,19.5a8.43,8.43,0,0,1,1.41-1.79C3.56,16.07,5,14.44,6.35,12.8A1.41,1.41,0,0,1,6.85,12.39Z" transform="translate(-0.29 -0.01)"/><path class="cls-74" d="M15.21,23.82c-.06-.25.15-.38.27-.52q2.43-2.88,4.89-5.74L25,12.15,29.4,7c1.26-1.48,2.52-2.95,3.78-4.44a3.1,3.1,0,0,0,.21-.36.51.51,0,0,1,.25.23,18.21,18.21,0,0,0-1.55,1.73c-.83.94-1.63,1.92-2.44,2.88L27.15,10l-2.4,2.8-2.47,2.91c-.8.94-1.62,1.88-2.42,2.83-1,1.19-2,2.39-3,3.58-.27.32-.56.63-.83.95-.15.16-.35.29-.33.55A1,1,0,0,1,15.21,23.82Z" transform="translate(-0.29 -0.01)"/><path class="cls-54" d="M26.06,37h.75c.05.24-.15.32-.29.42-3.74,2.63-7.44,5.31-11.16,7.95a.87.87,0,0,1-.37.19.9.9,0,0,1-.38-.28c0-.27.2-.34.35-.44,2.57-1.81,5.12-3.66,7.69-5.48l2.81-2A3.61,3.61,0,0,1,26.06,37Z" transform="translate(-0.29 -0.01)"/><path class="cls-38" d="M22.88,10.77a9.21,9.21,0,0,1,1.21-1.51c1-1.26,2.1-2.49,3.16-3.73l3-3.49,1-1.11a.84.84,0,0,1,.45.2c-.12.46-.52.73-.8,1.07-2.26,2.65-4.51,5.31-6.78,7.94a1.76,1.76,0,0,1-.67.63Z" transform="translate(-0.29 -0.01)"/><path class="cls-71" d="M47.53,26.65l0-.38L34.69,35.42H34c0-.22.19-.27.32-.37L43,28.89l3.69-2.64c.28-.2.53-.5.93-.47h0A2.28,2.28,0,0,1,47.53,26.65Z" transform="translate(-0.29 -0.01)"/><path class="cls-75" d="M46.58,17.44h.09a.6.6,0,0,1,.09.37c-.11-.12-.18-.19-.37,0q-6.09,4.38-12.21,8.73C31.12,28.68,28,30.84,25,33q-5.4,3.82-10.78,7.68c-.38.27-.74.58-1.14.82a.7.7,0,0,0-.4.76.9.9,0,0,1-.09-.58,4.71,4.71,0,0,1,1.16-.92l13.83-9.85,10.32-7.37c2.82-2,5.64-4,8.47-6C46.42,17.49,46.47,17.39,46.58,17.44Z" transform="translate(-0.29 -0.01)"/><path class="cls-49" d="M26.06,37a26.52,26.52,0,0,1-2.42,1.79c-2.7,2-5.43,3.88-8.14,5.81a5.37,5.37,0,0,0-.89.68.83.83,0,0,1-.36-.31c0-.23.17-.28.3-.37L23.91,38a8.05,8.05,0,0,1,1.4-.92Z" transform="translate(-0.29 -0.01)"/><path class="cls-76" d="M46.58,17.44l-5.83,4.17-9.14,6.53c-1.94,1.39-3.9,2.77-5.84,4.15L16.9,38.64l-3.84,2.72-.49.35v-.18c3.13-2.23,6.25-4.47,9.38-6.69l7.55-5.39Q35,25.51,40.57,21.54q2.81-2,5.63-4C46.3,17.48,46.4,17.25,46.58,17.44Z" transform="translate(-0.29 -0.01)"/><path class="cls-77" d="M12.56,36.46A19.59,19.59,0,0,0,14.77,35c1.72-1.2,3.42-2.43,5.12-3.65l7.72-5.52,1.54-1.12h.47c-.81.7-1.72,1.27-2.58,1.9L17.75,33.2,13,36.6c-.13.09-.27.16-.4.24Z" transform="translate(-0.29 -0.01)"/><path class="cls-78" d="M.3,24.28c.87-1,1.74-2,2.6-3s2-2.34,3-3.51c.82-1,1.65-1.9,2.46-2.85l2.18-2.61H11c0,.31-.21.48-.37.66l-7,8.18c-1,1.15-1.94,2.31-2.95,3.44a3.46,3.46,0,0,0-.3.57v.31A3.2,3.2,0,0,1,.3,24.28Z" transform="translate(-0.29 -0.01)"/><path class="cls-63" d="M17.91.57a3.59,3.59,0,0,1,1-.18c0,.22-.1.35-.22.49-1.72,2-3.41,4-5.13,6-.23.27-.46.55-.7.81-.09.1-.15.26-.33.19v-1c.67-1,1.5-1.82,2.25-2.73s1.67-1.92,2.48-2.91A6.25,6.25,0,0,1,17.91.57Z" transform="translate(-0.29 -0.01)"/><path class="cls-48" d="M19.41,10.77h-.47c-.12-.18,0-.29.12-.4,2.08-2.4,4.12-4.84,6.2-7.24C26,2.25,26.74,1.36,27.5.49c.15-.17.3-.32.55-.21l.26,0c-.07.47-.47.72-.74,1-2,2.31-3.93,4.6-5.88,6.91-.64.75-1.26,1.5-1.92,2.23A1,1,0,0,1,19.41,10.77Z" transform="translate(-0.29 -0.01)"/><path class="cls-61" d="M15,45.59c.94-.81,2-1.48,3-2.2,2.72-2,5.46-3.9,8.18-5.85.23-.16.51-.25.65-.51h.66c-.82.71-1.74,1.29-2.63,1.92l-9.1,6.49c-.14.1-.34.18-.36.4A.8.8,0,0,1,15,45.59Z" transform="translate(-0.29 -0.01)"/><path class="cls-42" d="M36.55,19.41l.2-.85a1.21,1.21,0,0,1,.41-.43l6.59-4.7c.15-.11.31-.23.51-.12a1.08,1.08,0,0,1,.44.38,11.93,11.93,0,0,1-1.57,1.18C41.08,16.31,39,17.78,37,19.24,36.87,19.33,36.74,19.48,36.55,19.41Z" transform="translate(-0.29 -0.01)"/><path class="cls-79" d="M1.49,31a3.56,3.56,0,0,1,.87-1.19C3.53,28.37,4.75,27,5.94,25.61s2.33-2.77,3.51-4.16c1-1.18,2-2.34,3-3.52,1.15-1.35,2.27-2.71,3.42-4,.45-.53.94-1,1.34-1.61h.29c-.61.87-1.35,1.62-2,2.44-.82,1-1.68,2-2.53,3s-1.62,1.88-2.42,2.83c-1,1.18-2,2.37-3,3.55C6.75,25,5.93,26,5.13,26.89l-3,3.56c-.2.24-.55.39-.53.78A.34.34,0,0,1,1.49,31Z" transform="translate(-0.29 -0.01)"/><path class="cls-80" d="M12.56,35.43l8.69-6.19,5.7-4c.24-.17.47-.35.7-.53h.47a30.45,30.45,0,0,1-2.5,1.85c-3.13,2.25-6.27,4.48-9.41,6.72l-3.65,2.58Z" transform="translate(-0.29 -0.01)"/><path class="cls-81" d="M47.7,24.75a23.38,23.38,0,0,0-2.18,1.5c-1.68,1.18-3.34,2.39-5,3.58-2.56,1.83-5.14,3.65-7.71,5.48a1,1,0,0,0-.08.11h-.47a11.35,11.35,0,0,1,1.63-1.22l9.32-6.67c1.5-1.06,3-2.1,4.5-3.15Z" transform="translate(-0.29 -0.01)"/><path class="cls-40" d="M24,11c0-.18-.15-.18-.28-.2,0-.38.29-.55.48-.77q2.7-3.17,5.39-6.34c.64-.74,1.26-1.5,1.93-2.22.1-.11.16-.28.36-.22a.63.63,0,0,1,.37.19,9.15,9.15,0,0,1-1.13,1.42L26.37,8.4c-.68.79-1.34,1.6-2,2.37C24.24,10.87,24.18,11,24,11Z" transform="translate(-0.29 -0.01)"/><path class="cls-44" d="M36.85,17.34c1.2-.84,2.4-1.7,3.61-2.54,1-.68,1.92-1.42,2.94-2.05a1.68,1.68,0,0,1,.64.38c-2.23,1.61-4.48,3.2-6.72,4.8-.14.1-.29.26-.5.16Z" transform="translate(-0.29 -0.01)"/><path class="cls-82" d="M31.68,37c-.82.71-1.74,1.29-2.62,1.92l-9.25,6.62A20.35,20.35,0,0,0,17.9,47a.1.1,0,0,1-.09,0c-.18-.28.07-.4.23-.51l5.05-3.59,7.47-5.32A1.09,1.09,0,0,0,31,37Z" transform="translate(-0.29 -0.01)"/><path class="cls-55" d="M25.31,37c-.82.71-1.74,1.29-2.62,1.92l-8.44,6-.19-.18c0-.33.36-.42.57-.57,3.3-2.37,6.61-4.72,9.91-7.08.05,0,.08-.1.12-.14Z" transform="translate(-0.29 -0.01)"/><path class="cls-69" d="M15.85,46.11c.22-.44.68-.61,1-.87,2.61-1.88,5.24-3.73,7.86-5.59l3.33-2.38a1.26,1.26,0,0,0,.22-.24h.56a29.94,29.94,0,0,1-2.58,1.89c-3.1,2.23-6.21,4.44-9.31,6.66a2.62,2.62,0,0,0-.85.7Z" transform="translate(-0.29 -0.01)"/><path class="cls-8" d="M15.57,12.27l-2.79,3.32c-1,1.17-2,2.35-3,3.52C9,20.05,8.18,21,7.37,21.93c-1,1.17-2,2.35-3,3.52L2,28.24l-.95,1.09c-.09-.36.19-.56.37-.77,1.15-1.37,2.34-2.73,3.51-4.09C6.3,22.86,7.65,21.24,9,19.64s2.72-3.15,4.07-4.73c.74-.87,1.47-1.76,2.21-2.64Z" transform="translate(-0.29 -0.01)"/><path class="cls-83" d="M9.2,12.27h.46c0,.32-.22.47-.38.66q-2.92,3.44-5.84,6.86C2.53,20.88,1.58,21.93.68,23c-.09.11-.18.26-.38.22V23a1.28,1.28,0,0,1,.31-.75C2,20.61,3.33,19,4.68,17.44c1.2-1.41,2.4-2.83,3.61-4.23A4.51,4.51,0,0,1,9.2,12.27Z" transform="translate(-0.29 -0.01)"/><path class="cls-60" d="M27.1.18l.46,0c-.11.56-.59.86-.92,1.26C25.29,3.1,23.9,4.7,22.52,6.31l-3.45,4.05a1.24,1.24,0,0,1-.5.41h-.38c-.13-.21,0-.31.15-.43q3-3.57,6.07-7.11C25.2,2.3,26,1.38,26.76.45A.75.75,0,0,1,27,.2Z" transform="translate(-0.29 -0.01)"/><path class="cls-81" d="M30.37,37c-1.62,1.16-3.24,2.34-4.87,3.5l-8.07,5.76c-.14.09-.34.17-.37.39a.76.76,0,0,1-.38-.16c1-.85,2.12-1.56,3.19-2.33l9.25-6.62c.24-.17.54-.26.69-.54Z" transform="translate(-0.29 -0.01)"/><path class="cls-50" d="M32.36,1.47l.35.23c0,.21-.15.33-.27.47q-2.1,2.45-4.18,4.9c-1.28,1.51-2.58,3-3.84,4.51-.1.13-.21.29-.42.24v-.57c.69-.94,1.48-1.8,2.23-2.69,1.21-1.4,2.4-2.82,3.61-4.22.77-.9,1.54-1.8,2.29-2.71A.63.63,0,0,1,32.36,1.47Z" transform="translate(-0.29 -0.01)"/><path class="cls-84" d="M22.31,12.27c-.85,1.15-1.83,2.19-2.75,3.28q-1.72,2.06-3.46,4.09c-.8.95-1.62,1.88-2.43,2.83q-1.51,1.8-3,3.59c-1,1.17-2,2.33-3,3.49l-3,3.53-1,1.16-.08-.05A3.83,3.83,0,0,1,4.46,33c1.59-1.91,3.21-3.79,4.83-5.68,1.19-1.39,2.4-2.77,3.59-4.16s2.34-2.78,3.51-4.16S18.72,16.3,19.88,15c.76-.89,1.5-1.79,2.25-2.68Z" transform="translate(-0.29 -0.01)"/><path class="cls-9" d="M.39,25.12c-.11-.61.44-.86.73-1.22,1-1.28,2.11-2.51,3.18-3.76s2-2.31,3-3.49c1.21-1.47,2.52-2.86,3.68-4.38h.37Q9.91,14,8.46,15.68C7.31,17.05,6.17,18.42,5,19.78L2.65,22.53c-.69.8-1.36,1.61-2,2.41A1.81,1.81,0,0,1,.39,25.12Z" transform="translate(-0.29 -0.01)"/><path class="cls-85" d="M1,18.38a4.77,4.77,0,0,1,.48-1.6c.85-1.15,1.82-2.19,2.73-3.28.1-.12.26-.17.35-.31A4.54,4.54,0,0,1,6,12.58c.07.22-.09.35-.21.49C4.4,14.71,3,16.33,1.61,18,1.46,18.16,1.34,18.41,1,18.38Z" transform="translate(-0.29 -0.01)"/><path class="cls-73" d="M12.56,6.57V5.63a16.44,16.44,0,0,1,1.57-2c.65-.79,1.34-1.55,2-2.33a2,2,0,0,1,.56-.49A4.26,4.26,0,0,1,17.81.58c-.54.74-1.15,1.41-1.74,2.1-1,1.19-2,2.39-3.06,3.58C12.89,6.4,12.82,6.63,12.56,6.57Z" transform="translate(-0.29 -0.01)"/><path class="cls-33" d="M11.08,29.82v.83a9.73,9.73,0,0,1-1.38,1.76c-.77.93-1.57,1.84-2.36,2.76,0,0-.06.07,0,.13a2.08,2.08,0,0,0,.5,0H9.38c.22,0,.44,0,.67,0s.69-.1,1,.13c-.1.11-.23.07-.35.06-1.44,0-2.88.08-4.31-.07-.06,0-.13-.06-.12-.14a10.84,10.84,0,0,1,1.16-1.45Q9,32,10.59,30.11c.12-.14.22-.3.43-.32Z" transform="translate(-0.29 -0.01)"/><path class="cls-86" d="M16.43,23.36c0-.39.35-.57.56-.82,1-1.24,2.08-2.46,3.13-3.69L23,15.49c1-1.19,2-2.39,3-3.58s2-2.33,3-3.49,2-2.35,3-3.52c.62-.73,1.27-1.45,1.9-2.17,0,0,0,0,0,0-.08.41-.45.63-.69.92-1.33,1.6-2.71,3.16-4,4.74s-2.64,3.14-4,4.7c-1,1.17-2,2.32-3,3.49s-2,2.35-3,3.52L16.83,23c0,.05-.4.17,0,.28A.59.59,0,0,1,16.43,23.36Z" transform="translate(-0.29 -0.01)"/><path class="cls-87" d="M1,18.38a12,12,0,0,0,1.58-1.76c.84-.94,1.65-1.91,2.46-2.89A6.88,6.88,0,0,0,6,12.58a2.76,2.76,0,0,1,.85-.19L.77,19.5A5.36,5.36,0,0,1,1,18.38Z" transform="translate(-0.29 -0.01)"/><path class="cls-88" d="M1.7,31.5a18.56,18.56,0,0,0,1.45-1.63C4,28.93,4.78,28,5.59,27l3-3.51c.8-.95,1.62-1.88,2.42-2.83,1-1.19,2-2.39,3-3.59s2-2.32,3-3.49c.36-.42.71-.86,1.06-1.3h.19A13.58,13.58,0,0,1,16.85,14c-1.18,1.42-2.39,2.82-3.58,4.23-.8.94-1.61,1.86-2.4,2.79-1,1.2-2,2.4-3,3.59s-2,2.33-3,3.5l-3,3.54A.21.21,0,0,1,1.7,31.5Z" transform="translate(-0.29 -0.01)"/><path class="cls-68" d="M17.35,10.77,26.43.12a1.38,1.38,0,0,1,.67.06l0,0a1.71,1.71,0,0,0-.58.46c-1.74,2-3.47,4.08-5.21,6.11-1,1.16-2,2.33-3,3.49a1.48,1.48,0,0,1-.6.51Z" transform="translate(-0.29 -0.01)"/><path class="cls-67" d="M17.72,10.77C19.14,9.12,20.57,7.48,22,5.82l4-4.7a6.8,6.8,0,0,0,.61-.7A.48.48,0,0,1,27.08.2c-.9,1.15-1.87,2.24-2.82,3.35C23.11,4.89,22,6.26,20.84,7.61c-.79.93-1.6,1.85-2.4,2.78-.1.12-.25.2-.25.38Z" transform="translate(-0.29 -0.01)"/><path class="cls-58" d="M24,11.82a12,12,0,0,0,1.42-1.6c.84-.92,1.61-1.89,2.41-2.84s1.74-2.06,2.62-3.08c.75-.87,1.5-1.74,2.26-2.6l.21.14L30.61,4.59c-.84,1-1.68,2-2.53,3s-1.62,1.89-2.43,2.83L24,12.29l-.13,0C24,12.15,24,12,24,11.82Z" transform="translate(-0.29 -0.01)"/><path class="cls-89" d="M9.2,12.27c-.92,1.09-1.83,2.19-2.75,3.27l-3,3.59C2.49,20.22,1.56,21.32.6,22.4A3.74,3.74,0,0,0,.31,23a2,2,0,0,1,.08-.84A16.83,16.83,0,0,0,1.94,20.4c.85-1,1.67-2,2.5-2.94L6.9,14.55l1.92-2.28Z" transform="translate(-0.29 -0.01)"/><path class="cls-90" d="M35.35,6,33,8.7c-.82,1-1.63,1.91-2.44,2.87L28.1,14.48l-2.39,2.79c-.83,1-1.66,2-2.5,2.95-.62.73-1.24,1.46-1.88,2.18a5.59,5.59,0,0,0-.52.66h-.18A11.87,11.87,0,0,1,22,21.4c1-1.23,2.06-2.44,3.1-3.66.81-.94,1.63-1.88,2.43-2.82q1.52-1.77,3-3.56l2.24-2.62c.71-.84,1.42-1.68,2.14-2.51a3.47,3.47,0,0,1,.45-.41Z" transform="translate(-0.29 -0.01)"/><path class="cls-52" d="M5.44,35.22a.7.7,0,0,1-.38-.15c-.08-.24.1-.37.22-.52,1.79-2.07,3.55-4.16,5.32-6.23a13.31,13.31,0,0,1,.93-1.06c.09-.08.15-.26.33-.16l-.51,1.22c-1.89,2.26-3.84,4.48-5.73,6.75A1.3,1.3,0,0,1,5.44,35.22Z" transform="translate(-0.29 -0.01)"/><path class="cls-41" d="M6.29,35.34l.09.08a1.82,1.82,0,0,1-.76-.16c0-.31.23-.46.39-.65,1.6-1.88,3.21-3.76,4.81-5.65.11-.13.2-.33.43-.28l-.17,1.14h0c-.18-.11-.21.07-.28.15-1,1.17-2,2.36-3,3.54-.44.52-.89,1-1.33,1.57C6.35,35.15,6.22,35.2,6.29,35.34Z" transform="translate(-0.29 -0.01)"/><path class="cls-65" d="M23.9,36c-1.07.74-2.15,1.48-3.21,2.23l-5.34,3.82-1.93,1.38c-.11.07-.21.14-.21.29A.57.57,0,0,1,13,43.4c1.53-1.1,3.06-2.22,4.6-3.32l6.22-4.4C23.94,35.78,23.89,35.89,23.9,36Z" transform="translate(-0.29 -0.01)"/><path class="cls-57" d="M11.86,27.1c-.86.81-1.55,1.76-2.33,2.64s-1.66,1.92-2.46,2.9c-.66.82-1.43,1.55-2,2.43A.32.32,0,0,1,4.79,35,10.28,10.28,0,0,1,6,33.41c1-1.25,2.08-2.47,3.13-3.69l3-3.5c.16-.18.31-.38.48-.56s.12-.17.21,0Z" transform="translate(-0.29 -0.01)"/><path class="cls-91" d="M14.72,12.27l-2.79,3.32c-1,1.17-2,2.35-3,3.52-.81.95-1.63,1.88-2.43,2.83-1,1.16-2,2.36-3,3.51s-1.69,2.11-2.68,3c.14-.53.59-.83.91-1.22C3.35,25.37,5,23.5,6.56,21.62s3.08-3.57,4.61-5.37q1.7-2,3.37-4Z" transform="translate(-0.29 -0.01)"/><path class="cls-92" d="M.3,23.25a17.34,17.34,0,0,0,1.38-1.58c.83-.94,1.63-1.91,2.45-2.87l2.46-2.91L9,13.1c.23-.27.45-.55.67-.83h.28c-.87,1.14-1.83,2.19-2.75,3.28C6,16.91,4.89,18.28,3.73,19.64c-.81,1-1.64,1.91-2.46,2.86-.32.38-.65.75-1,1.12Z" transform="translate(-0.29 -0.01)"/><path class="cls-66" d="M35.82,21c.4,0,.65-.35.94-.55,2-1.39,3.94-2.81,5.91-4.21L45,14.56a.55.55,0,0,1,.29-.13l.15.2c-.73.5-1.46,1-2.18,1.49l-5,3.55c-.79.57-1.58,1.15-2.38,1.71a4.39,4.39,0,0,1-.53.27Z" transform="translate(-0.29 -0.01)"/><path class="cls-34" d="M7.7,35.42H7l4.1-4.77v.85A10.93,10.93,0,0,1,9.7,33.24c-.5.63-1.06,1.22-1.56,1.84A1.22,1.22,0,0,1,7.7,35.42Z" transform="translate(-0.29 -0.01)"/><path class="cls-79" d="M18.57,10.77c1.42-1.66,2.86-3.31,4.28-5C24.42,3.94,26,2.07,27.56.21a.82.82,0,0,1,.49.07c-.51,0-.64.51-.91.8-.87,1-1.7,2-2.54,3-1,1.17-2,2.35-3,3.52-.79.93-1.6,1.86-2.4,2.79-.11.13-.27.21-.28.41Z" transform="translate(-0.29 -0.01)"/><path class="cls-93" d="M36.55,19.41q3.33-2.39,6.68-4.75a8.13,8.13,0,0,1,1.47-1,.34.34,0,0,1,.18.19,23.23,23.23,0,0,0-2.17,1.5c-1.69,1.18-3.36,2.4-5,3.6l-1.3.89A.89.89,0,0,1,36.55,19.41Z" transform="translate(-0.29 -0.01)"/><path class="cls-7" d="M13.51,10.77h-.85c0-.16.08-.25.17-.36.84-1,1.7-2,2.54-3a.81.81,0,0,1,.48-.35.57.57,0,0,1,.44.42c0,.44-.4.64-.63.93-.54.66-1.11,1.29-1.65,1.95A1.14,1.14,0,0,1,13.51,10.77Z" transform="translate(-0.29 -0.01)"/><path class="cls-89" d="M12.56,7.88C13.37,7,14.19,6,15,5.08s1.63-1.9,2.44-2.86L18.94.39,19.4.31c-.1.58-.61.87-.93,1.29-.55.74-1.24,1.36-1.75,2.13a3.69,3.69,0,0,0-1.28,1.56A11.89,11.89,0,0,0,13.89,7c-.36.39-.67.82-1,1.19-.08.08-.13.23-.29.17Z" transform="translate(-0.29 -0.01)"/><path class="cls-70" d="M32.36,1.47c-.6.89-1.37,1.64-2,2.47-.82,1-1.68,2-2.52,3s-1.61,1.89-2.43,2.82A9.35,9.35,0,0,1,24,11.25V11C25,9.83,26,8.69,26.93,7.56l2.38-2.79,2.5-2.94a1.47,1.47,0,0,1,.44-.42Z" transform="translate(-0.29 -0.01)"/><path class="cls-35" d="M7.7,35.42l3.37-3.92v.93A9.22,9.22,0,0,1,9.7,34.17a5.73,5.73,0,0,1-1.16,1.25Z" transform="translate(-0.29 -0.01)"/><path class="cls-87" d="M16.69.85l-3,3.53a12,12,0,0,1-1.11,1.25,1.84,1.84,0,0,1,.09-.84,11.38,11.38,0,0,1,1.47-1.85c.49-.59,1-1.2,1.52-1.75A3.18,3.18,0,0,1,16.69.85Z" transform="translate(-0.29 -0.01)"/><path class="cls-80" d="M36.82,18.09c.93-.52,1.76-1.21,2.64-1.82,1.39-1,2.77-2,4.16-3,.13-.09.25-.2.42-.17a.36.36,0,0,1,.22.18,7.38,7.38,0,0,0-1.71,1.11c-1.95,1.36-3.87,2.76-5.8,4.14A.77.77,0,0,1,36.82,18.09Z" transform="translate(-0.29 -0.01)"/><path class="cls-5" d="M13.51,10.77,16,7.83a.54.54,0,0,0,.19-.36,1.12,1.12,0,0,1,.86.37A26.62,26.62,0,0,0,15,10.23a1.61,1.61,0,0,1-.62.54Z" transform="translate(-0.29 -0.01)"/><path class="cls-85" d="M15.65,1.19c0,.39-.36.52-.56.77-.78,1-1.57,1.92-2.43,2.83A4.08,4.08,0,0,1,15.65,1.19Z" transform="translate(-0.29 -0.01)"/><path class="cls-6" d="M18.75,7.52a3.45,3.45,0,0,1-.73.93c-.64.8-1.32,1.55-2,2.32h-.85c0-.34.3-.49.48-.7a28.21,28.21,0,0,1,2-2.26C18,7.76,18.34,7.47,18.75,7.52Z" transform="translate(-0.29 -0.01)"/><path class="cls-4" d="M17.63,7.89l-2.44,2.88h-.84L16.61,8.1a.57.57,0,0,1,.48-.23A.39.39,0,0,1,17.63,7.89Z" transform="translate(-0.29 -0.01)"/><path class="cls-88" d="M19.41,10.77c1.42-1.65,2.84-3.29,4.25-4.95s2.64-3.13,4-4.69A7.69,7.69,0,0,0,28.31.3a.76.76,0,0,1,.49.08.6.6,0,0,0-.52.26L26.37,2.86l-1.95,2.3-2.52,3c-.62.72-1.23,1.43-1.86,2.14a2.09,2.09,0,0,0-.35.49Z" transform="translate(-0.29 -0.01)"/><path class="cls-32" d="M8.54,35.42c.8-1,1.66-2,2.53-3v1a6.83,6.83,0,0,1-1.68,2Z" transform="translate(-0.29 -0.01)"/><path class="cls-94" d="M.58,20.62A16.73,16.73,0,0,0,2.12,18.9c.86-1,1.67-2,2.51-2.94l2.43-2.87a2.9,2.9,0,0,0,.63-.8H8l-3.48,4.1L1.08,20.43c-.19.23-.39.44-.59.66A1.09,1.09,0,0,1,.58,20.62Z" transform="translate(-0.29 -0.01)"/><path class="cls-74" d="M11.25,28.68A18.56,18.56,0,0,0,9.8,30.31c-.83.93-1.61,1.9-2.41,2.85l-1.77,2.1-.18,0a10,10,0,0,1,1.43-1.81C7.89,32.16,9,31,10,29.73l1.21-1.41c.05-.05.1-.07.15,0A.51.51,0,0,1,11.25,28.68Z" transform="translate(-0.29 -0.01)"/><path class="cls-84" d="M31.88,1.22A15.59,15.59,0,0,0,30.2,3.08C29.37,4,28.58,5,27.77,5.94l-2.5,2.94c-.44.52-.89,1-1.34,1.55-.09.1-.21.18-.21.34h-.28L27.52,6q2-2.42,4.09-4.82s.05,0,.08-.05A.2.2,0,0,1,31.88,1.22Z" transform="translate(-0.29 -0.01)"/><path class="cls-95" d="M21.28.12V.19a2,2,0,0,0-.84.64c-.7.87-1.46,1.7-2.17,2.57a.82.82,0,0,1-.29.23.39.39,0,0,1-.45-.11c-.08-.24.11-.38.23-.52.72-.86,1.47-1.71,2.18-2.58a1.06,1.06,0,0,1,.31-.21A5.06,5.06,0,0,1,21.28.12Z" transform="translate(-0.29 -0.01)"/><path class="cls-95" d="M12.56,9.85V9.19A30,30,0,0,1,14.79,6.5C15,6.3,15,6,15.4,6a.67.67,0,0,1,.19.57c-.92,1-1.74,2.05-2.64,3.05C12.85,9.73,12.78,9.92,12.56,9.85Z" transform="translate(-0.29 -0.01)"/><path class="cls-78" d="M12.56,9.85c.52-.49.94-1.06,1.41-1.6s.82-1,1.23-1.45c.09-.11.18-.23.34-.23s.18.13.18.26a8.94,8.94,0,0,1-1.27,1.6c-.49.61-1,1.19-1.52,1.77-.1.11-.17.28-.37.21Z" transform="translate(-0.29 -0.01)"/><path class="cls-96" d="M4.59,13.19a42.22,42.22,0,0,1-3.08,3.59A6.59,6.59,0,0,1,4.59,13.19Z" transform="translate(-0.29 -0.01)"/><path class="cls-83" d="M16.69,3.66a5.79,5.79,0,0,1,1.07-1.39c.53-.67,1.09-1.31,1.64-2l.47,0c.06.29-.18.44-.33.62-.61.73-1.22,1.45-1.85,2.16-.13.15-.28.3-.25.52A.75.75,0,0,1,16.69,3.66Z" transform="translate(-0.29 -0.01)"/><path class="cls-83" d="M12.56,8.35c.79-.93,1.58-1.87,2.39-2.79.1-.12.16-.39.44-.28a.35.35,0,0,1,.06.33,9.62,9.62,0,0,1-1,1.27c-.42.53-.87,1-1.3,1.54-.15.17-.26.45-.57.4Z" transform="translate(-0.29 -0.01)"/><path class="cls-94" d="M12.56,6.57a14.08,14.08,0,0,0,1.55-1.72C15,3.91,15.75,2.92,16.57,2A9.55,9.55,0,0,1,17.81.58h.1a10.28,10.28,0,0,1-1.24,1.55Q15.14,4,13.54,5.8a4.67,4.67,0,0,1-1,1Z" transform="translate(-0.29 -0.01)"/><path class="cls-9" d="M12.56,10.41c.43-.48.88-.95,1.3-1.44.61-.7,1.21-1.42,1.81-2.12.19,0,.21.13.2.27a13.7,13.7,0,0,0-1.5,1.64c-.6.64-1.14,1.34-1.71,2C12.45,10.71,12.56,10.54,12.56,10.41Z" transform="translate(-0.29 -0.01)"/><path class="cls-43" d="M9.39,35.42l1.68-2v.74a3,3,0,0,1-1,1.21Z" transform="translate(-0.29 -0.01)"/><path class="cls-92" d="M12.56,8.82a9.76,9.76,0,0,0,1.33-1.47c.5-.56,1-1.15,1.47-1.72a.24.24,0,0,1,0,.38c-.62.72-1.24,1.45-1.88,2.16a6,6,0,0,1-.93,1Z" transform="translate(-0.29 -0.01)"/><path class="cls-97" d="M17.46,3.49c-.37-.15,0-.31,0-.36.43-.53.89-1,1.34-1.56a11.85,11.85,0,0,0,1-1.3.51.51,0,0,1,.38-.06L17.53,3.49l0,0Z" transform="translate(-0.29 -0.01)"/><path class="cls-53" d="M10,35.42l1-1.21a4.52,4.52,0,0,1,0,1.22Z" transform="translate(-0.29 -0.01)"/><path class="cls-98" d="M28.23,41.83a2.7,2.7,0,0,1,.83-1.53.46.46,0,0,1,.23-.28,2.26,2.26,0,0,1,1.42-.27c.32.1.68.12.89.44a2.23,2.23,0,0,1,.68,2.87,2,2,0,0,1-1.9,1.15,2.06,2.06,0,0,1-1.92-1.27c-.06-.12-.11-.25-.16-.38Z" transform="translate(-0.29 -0.01)"/><path class="cls-46" d="M31.6,40.19l-.86-.35c0-.34.26-.49.47-.64.89-.65,1.8-1.27,2.69-1.94.15-.11.35-.12.5-.23a3.53,3.53,0,0,0,.46,0c.37,0,.55.09.47.48Z" transform="translate(-0.29 -0.01)"/><path class="cls-98" d="M17.46,3.49h.07l.47.06a.28.28,0,0,1,.38.12l.28.16.47.39.37.56.19.66-.08.84c.1.17,0,.27-.12.38a4,4,0,0,1-.74.86,3,3,0,0,1-1.12.37l-.54,0a5.59,5.59,0,0,1-.86-.4l-.36-.35-.2-.27-.13-.28L15.37,6V5.63l0-.35a2.57,2.57,0,0,1,1.3-1.62Z" transform="translate(-0.29 -0.01)"/><path class="cls-91" d="M19.49,6.66l.12-.38c.74-.7,1.34-1.54,2-2.3.84-.94,1.64-1.93,2.46-2.89l.85-1h.18l-3.5,4.1L19.81,6.39A.76.76,0,0,1,19.49,6.66Z" transform="translate(-0.29 -0.01)"/><path class="cls-99" d="M18.38,3.67,18,3.55c.85-1,1.71-2,2.55-3a.76.76,0,0,1,.73-.31Z" transform="translate(-0.29 -0.01)"/><path class="cls-100" d="M35.33,11.16V12l-2.95,3.46c-1,1.16-2,2.32-3,3.49s-2,2.34-3,3.51c-.17.2-.35.39-.53.59h-.75c-.05-.19.1-.28.2-.39q3-3.55,6-7.07c1.17-1.38,2.35-2.75,3.51-4.13C35,11.33,35.08,11.12,35.33,11.16Z" transform="translate(-0.29 -0.01)"/><path class="cls-82" d="M47.61,25.78c-1.43.9-2.77,1.94-4.15,2.91C41.8,29.84,40.17,31,38.54,32.2L34,35.42h-.47c.15-.43.57-.57.89-.79,3.49-2.51,7-5,10.51-7.48.73-.52,1.45-1.06,2.18-1.59C47.47,25.32,47.57,25.37,47.61,25.78Z" transform="translate(-0.29 -0.01)"/><path class="cls-51" d="M34.4,37c-.53.39-1.08.76-1.6,1.17a10.18,10.18,0,0,0-2.06,1.64,2.87,2.87,0,0,0-1.46.3c-.12-.14-.12-.14,0-.26.49-.38,1-.74,1.5-1.09.86-.58,1.65-1.24,2.55-1.76Z" transform="translate(-0.29 -0.01)"/><path class="cls-101" d="M33.37,37q-1.95,1.39-3.88,2.81c-.08.07-.36,0-.21.3l-.22.16c-.24-.17-.35.08-.47.17-2.46,1.74-4.92,3.51-7.38,5.26-.72.51-1.41,1.07-2.18,1.51,0-.28.28-.33.44-.44L30.2,39.13l2.73-1.94a.81.81,0,0,0,.16-.16Z" transform="translate(-0.29 -0.01)"/><path class="cls-102" d="M35.33,11.16a18.07,18.07,0,0,0-1.55,1.73c-.85.95-1.65,1.94-2.47,2.91l-2.47,2.91-2.36,2.76-1.36,1.59h-.75c0-.31.23-.47.39-.66,1.59-1.82,3.14-3.67,4.71-5.5,1.83-2.14,3.65-4.27,5.46-6.41.11-.13.18-.31.4-.26Z" transform="translate(-0.29 -0.01)"/><path class="cls-103" d="M35.33,9.38V10a2.31,2.31,0,0,1-.57.78c-2.45,2.84-4.86,5.71-7.3,8.56-1,1.16-2,2.3-3,3.49a1.38,1.38,0,0,1-.31.28h-.56c0-.33.26-.51.44-.73l6.43-7.55,4.38-5.12C35,9.52,35.1,9.34,35.33,9.38Z" transform="translate(-0.29 -0.01)"/><path class="cls-104" d="M35.33,7V7.6a23.89,23.89,0,0,1-1.74,2.14L29,15.14q-2.09,2.46-4.19,4.91c-.77.9-1.53,1.81-2.31,2.71a1.63,1.63,0,0,1-.34.3h-.47c-.06-.2.07-.33.18-.45,2.1-2.41,4.15-4.86,6.23-7.28,1.53-1.79,3.06-3.58,4.57-5.38.74-.88,1.51-1.74,2.25-2.63C35,7.19,35.09,7,35.33,7Z" transform="translate(-0.29 -0.01)"/><path class="cls-105" d="M35.33,8.45V9a13.26,13.26,0,0,1-1.49,1.85l-3.6,4.23L25.6,20.52c-.61.72-1.24,1.43-1.84,2.18a1.46,1.46,0,0,1-.42.36h-.46c0-.32.23-.49.4-.7q2.05-2.43,4.13-4.84l4.16-4.86c1.12-1.32,2.25-2.63,3.36-3.95C35,8.58,35.11,8.4,35.33,8.45Z" transform="translate(-0.29 -0.01)"/><path class="cls-106" d="M22.13,23.06c.63-.89,1.39-1.66,2.08-2.5,1-1.21,2-2.4,3-3.59s2-2.32,3-3.49,2-2.37,3-3.51A27.66,27.66,0,0,1,35.33,7.6V8a2.32,2.32,0,0,1-.67.94l-6.29,7.36c-1.82,2.14-3.64,4.27-5.45,6.42a1.46,1.46,0,0,1-.42.36Z" transform="translate(-0.29 -0.01)"/><path class="cls-107" d="M22.5,23.06c1.06-1.35,2.2-2.61,3.31-3.92L29.32,15c1-1.17,2-2.33,3-3.49l3-3.51v.47c-.61.69-1.23,1.39-1.83,2.09L31,13.48l-2.43,2.88-2.39,2.79c-.84,1-1.67,2-2.5,3l-.8,1Z" transform="translate(-0.29 -0.01)"/><path class="cls-108" d="M35.33,7a14.94,14.94,0,0,0-1.45,1.63c-.86,1-1.67,2-2.5,2.94s-1.62,1.92-2.44,2.87l-2.39,2.79-2.49,2.95c-.63.73-1.25,1.46-1.89,2.18a4.65,4.65,0,0,0-.51.66h-.28a14.35,14.35,0,0,1,1.44-1.76c1-1.23,2.06-2.45,3.1-3.66.81-.95,1.63-1.88,2.43-2.82l3-3.52c.79-.94,1.59-1.86,2.39-2.8q.77-.88,1.53-1.8C35.38,6.82,35.33,6.94,35.33,7Z" transform="translate(-0.29 -0.01)"/><path class="cls-109" d="M23.34,23.06c1.05-1.35,2.21-2.61,3.31-3.91S29,16.37,30.16,15c1-1.18,2-2.34,3-3.52.62-.72,1.21-1.46,1.82-2.18A2.7,2.7,0,0,1,35.33,9v.37a18.07,18.07,0,0,0-1.55,1.73c-.85,1-1.65,1.94-2.47,2.91l-2.47,2.91-2.29,2.69-2.92,3.44Z" transform="translate(-0.29 -0.01)"/><path class="cls-110" d="M24.19,23.06c1-1.35,2.2-2.61,3.3-3.91S29.82,16.37,31,15c1-1.18,2-2.34,3-3.52L35.33,10v.28c-.61.69-1.23,1.39-1.83,2.09-.84,1-1.67,2-2.5,2.95l-2.46,2.91c-.76.9-1.53,1.79-2.3,2.68-.62.74-1.24,1.47-1.87,2.2Z" transform="translate(-0.29 -0.01)"/><path class="cls-111" d="M6.29,35.34c-.14,0-.16-.06-.07-.17L8.83,32.1l2-2.33c.06-.07.09-.23.23-.14s0,.11,0,.18a14.94,14.94,0,0,0-1.45,1.63C9,32.18,8.32,33,7.68,33.71,7.22,34.26,6.75,34.8,6.29,35.34Z" transform="translate(-0.29 -0.01)"/></svg>