<svg id="Layer_1" data-name="Layer 1" xmlns="http://www.w3.org/2000/svg" viewBox="0 0 42.4 48"><defs><style>.cls-1{fill:#030303;}.cls-2{fill:#818181;}.cls-3{fill:#4e4d4e;}.cls-4{fill:#fefefe;}</style></defs><path class="cls-1" d="M45.12,11.2a1.59,1.59,0,0,1,.08.35V33.49s0,.09,0,.18l-.45-.23c-2.2-1.28-4.39-2.56-6.59-3.82a.64.64,0,0,1-.36-.66c0-2.7,0-5.4,0-8.11,0-.74-.19-.86-.81-.49q-4.28,2.48-8.56,4.94a1,1,0,0,0-.58,1c0,3.32,0,6.65,0,10,0,.7.18.81.8.45,2.34-1.35,4.67-2.71,7-4.05a.69.69,0,0,1,.57-.06C38.62,34,41,35.38,43.44,36.8c-.71.4-1.36.79-2,1.17q-8.54,4.92-17.06,9.85c-.09,0-.18.12-.27.18H24V24c0-.17,0-.34,0-.51l.21-.11,16.34-9.48Z" transform="translate(-2.8)"/><path class="cls-2" d="M45.12,11.2l-4.55,2.68L24.23,23.36l-.21.11-.42-.2-7.84-4.56L5.54,12.79c-.9-.52-1.82-1-2.72-1.54a4.35,4.35,0,0,1,.42-.33L21.9.2l.32-.2h.09c0,2.72,0,5.43,0,8.15a.71.71,0,0,1-.43.73l-7,4c-.6.34-.6.57,0,.93l8.52,4.93a1.09,1.09,0,0,0,1.22,0c1.49-.88,3-1.73,4.49-2.6l4.2-2.43c.38-.22.39-.5,0-.75-.11-.08-.24-.14-.36-.21-2.28-1.32-4.55-2.64-6.84-3.95a.6.6,0,0,1-.35-.62c0-2.73,0-5.47,0-8.2H26l5.44,3.19L44.91,11C45,11.08,45.05,11.15,45.12,11.2Z" transform="translate(-2.8)"/><path class="cls-3" d="M2.82,11.25c.9.51,1.82,1,2.72,1.54l10.22,5.92,7.84,4.56.42.2c0,.17,0,.34,0,.51V48h-.09c-1-.62-2.08-1.26-3.12-1.87L5,36.93l-.36-.23L5,36.46l6.63-3.86a.62.62,0,0,1,.72,0c2.3,1.35,4.61,2.68,6.92,4,.65.37.91.22.91-.53,0-3.27,0-6.53,0-9.8a1.15,1.15,0,0,0-.65-1.13c-2.84-1.62-5.67-3.27-8.51-4.9-.53-.31-.83-.14-.83.47v8.21a.5.5,0,0,1-.26.53c-2.32,1.33-4.64,2.69-7,4l-.17.07c0-.11,0-.19,0-.28V11.49A1.94,1.94,0,0,1,2.82,11.25Z" transform="translate(-2.8)"/><path class="cls-4" d="M25.88,0c0,2.73,0,5.47,0,8.2a.6.6,0,0,0,.35.62c2.29,1.31,4.56,2.63,6.84,3.95.12.07.25.13.36.21.36.25.35.53,0,.75l-4.2,2.43c-1.5.87-3,1.72-4.49,2.6a1.09,1.09,0,0,1-1.22,0L15,13.82c-.62-.36-.62-.59,0-.93l7-4a.71.71,0,0,0,.43-.73c0-2.72,0-5.43,0-8.15Z" transform="translate(-2.8)"/></svg>